<svg width="24" height="24" viewBox="0 0 24 24" fill="none" xmlns="http://www.w3.org/2000/svg">
<path fill-rule="evenodd" clip-rule="evenodd" d="M12 17C16.4183 17 20 13.4183 20 9C20 4.58172 16.4183 1 12 1C7.58172 1 4 4.58172 4 9C4 13.4183 7.58172 17 12 17Z" fill="#CF0090"/>
<path fill-rule="evenodd" clip-rule="evenodd" d="M12 14.5C15.0376 14.5 17.5 12.0376 17.5 9C17.5 5.96243 15.0376 3.5 12 3.5C8.96243 3.5 6.5 5.96243 6.5 9C6.5 12.0376 8.96243 14.5 12 14.5Z" fill="white"/>
<path fill-rule="evenodd" clip-rule="evenodd" d="M12 12C13.6569 12 15 10.6569 15 9C15 7.34315 13.6569 6 12 6C10.3431 6 9 7.34315 9 9C9 10.6569 10.3431 12 12 12Z" fill="#CF0090"/>
</svg>
