<svg width="36" height="24" viewBox="0 0 36 24" fill="none" xmlns="http://www.w3.org/2000/svg">
<path d="M27.8053 0V11.5698C27.8053 15.229 30.4106 17.8343 34.0698 17.8343H35.1V13.6662H34.7859C33.3766 13.6662 32.6842 12.9738 32.6842 11.5646V10.3036H35.1V6.13548H32.6842V0L27.8053 0ZM26.7041 10.3027H24.2883V17.8343H19.4094V6.1346C19.4094 2.65268 22.0147 0 25.6739 0H26.7041V4.16813H26.3899C25.0281 4.16813 24.3357 4.82537 24.2883 6.13373H26.7041V10.3019V10.3027ZM11.096 12.7123V6.13373H6.21709V13.6539C6.21709 16.3066 7.86328 18.0765 10.3501 18.0765C11.848 18.0765 13.0976 17.4491 13.4644 16.5488C13.4644 18.367 12.1911 19.5384 10.279 19.5384C9.34362 19.5384 8.34327 19.2717 7.60266 18.8698V23.0677C8.60301 23.5003 9.79904 23.7074 11.1908 23.7074C15.4659 23.7074 18.0712 21.0372 18.0712 16.6848V6.13373H13.1923V12.7123C13.1923 13.4047 12.7659 13.9084 12.1446 13.9084C11.5233 13.9084 11.0969 13.4047 11.0969 12.7123H11.096ZM6.03369 17.3964C5.16321 16.4198 4.8789 15.5019 4.8789 13.6548V0H0V14.6192C0 16.733 1.37943 18.0712 3.57055 18.0712C4.48841 18.0712 5.34134 17.8106 6.03369 17.3964Z" fill="#FF00BF"/>
</svg>
