<svg width="145" height="28" viewBox="0 0 145 28" fill="none" xmlns="http://www.w3.org/2000/svg">
<g clip-path="url(#clip0_5226_205)">
<g clip-path="url(#clip1_5226_205)">
<mask id="mask0_5226_205" style="mask-type:luminance" maskUnits="userSpaceOnUse" x="0" y="0" width="145" height="28">
<path d="M145 0H0V28H145V0Z" fill="white"/>
</mask>
<g mask="url(#mask0_5226_205)">
<path d="M29.0834 2.87891V15.1216C29.0834 18.9936 31.8069 21.7504 35.6323 21.7504H36.7093V17.3399H36.3807C34.9076 17.3399 34.1839 16.6073 34.1839 15.1161V13.7817H36.7093V9.3712H34.1839V2.87891H29.0834ZM27.9321 13.7808H25.4067V21.7504H20.3063V9.37027C20.3063 5.68585 23.0298 2.87891 26.8551 2.87891H27.9321V7.28945H27.6037C26.18 7.28945 25.4562 7.98491 25.4067 9.36937H27.9321V13.7799V13.7808ZM11.6154 16.3306V9.36937H6.51496V17.3269C6.51496 20.1339 8.2359 22.0067 10.8356 22.0067C12.4015 22.0067 13.7078 21.3428 14.0913 20.3901C14.0913 22.314 12.7602 23.5536 10.7613 23.5536C9.78344 23.5536 8.7377 23.2714 7.96344 22.8461V27.2882C9.00921 27.746 10.2596 27.9651 11.7144 27.9651C16.1837 27.9651 18.9073 25.1395 18.9073 20.534V9.36937H13.8069V16.3306C13.8069 17.0632 13.3611 17.5962 12.7116 17.5962C12.0621 17.5962 11.6163 17.0632 11.6163 16.3306M6.32326 21.2871C5.41324 20.2536 5.11602 19.2824 5.11602 17.3278V2.87891H0.015625V18.3483C0.015625 20.5851 1.45768 22.0011 3.74828 22.0011C4.70781 22.0011 5.59946 21.7253 6.32326 21.2871Z" fill="#FF00BF"/>
<path d="M46.4164 22.2392C42.8582 22.2392 40.4194 19.5325 40.4194 15.6369C40.4194 11.7413 42.8829 9.03464 46.4164 9.03464C49.3778 9.03464 51.7168 11.0836 51.9159 13.8662H48.0588C47.9094 12.9049 47.3123 12.3231 46.4414 12.3231C45.1972 12.3231 44.4756 13.512 44.4756 15.6369C44.4756 17.7112 45.1972 18.9507 46.4414 18.9507C47.3123 18.9507 47.9094 18.3689 48.0588 17.3823H51.9159C51.7168 20.1649 49.3778 22.2392 46.4164 22.2392ZM58.7683 22.2392C55.2284 22.2392 52.8457 19.6147 52.8457 15.6369C52.8457 11.6591 55.2284 9.03464 58.7683 9.03464C62.3078 9.03464 64.6905 11.6844 64.6905 15.6369C64.6905 19.5894 62.3078 22.2392 58.7683 22.2392ZM56.9019 15.6369C56.9019 17.6922 57.6111 18.9507 58.7683 18.9507C59.9254 18.9507 60.6346 17.6922 60.6346 15.6369C60.6346 13.5689 59.9314 12.3231 58.7683 12.3231C57.6048 12.3231 56.9019 13.5689 56.9019 15.6369ZM66.1455 21.885V9.38876H69.9776V10.7231C70.4566 9.73661 71.6571 9.03464 73.0881 9.03464C75.5515 9.03464 77.1937 10.9066 77.1937 13.6638V21.885H73.2623V14.2456C73.2623 13.0314 72.6898 12.3231 71.7442 12.3231C70.7241 12.3231 70.077 13.082 70.077 14.3215V21.885H66.1455ZM84.5495 22.2392C80.9909 22.2392 78.5522 19.5325 78.5522 15.6369C78.5522 11.7413 81.0159 9.03464 84.5495 9.03464C87.5106 9.03464 89.8496 11.0836 90.0487 13.8662H86.1916C86.0425 12.9049 85.4451 12.3231 84.5742 12.3231C83.3299 12.3231 82.6084 13.512 82.6084 15.6369C82.6084 17.7112 83.3299 18.9507 84.5742 18.9507C85.4451 18.9507 86.0425 18.3689 86.1916 17.3823H90.0487C89.8496 20.1649 87.5106 22.2392 84.5495 22.2392ZM91.3708 21.885V9.38876H95.3022V21.885H91.3708ZM93.3489 7.64336C92.0549 7.64336 90.9849 6.58091 90.9849 5.24022C90.9849 3.89954 92.0549 2.8371 93.3489 2.8371C94.6678 2.8371 95.7379 3.89954 95.7379 5.24022C95.7379 6.58091 94.6678 7.64336 93.3489 7.64336ZM102.855 22.2392C99.2036 22.2392 96.7462 19.5641 96.7462 15.5863C96.7462 11.6971 99.2036 9.03464 102.806 9.03464C106.756 9.03464 108.915 11.8741 108.516 16.5476H100.833C100.889 18.1539 101.723 19.3048 102.855 19.3048C103.72 19.3048 104.274 18.9001 104.591 18.04H108.448C108.037 20.5191 105.742 22.2392 102.855 22.2392ZM100.871 14.1444H104.697C104.541 12.7405 103.882 11.969 102.806 11.969C101.773 11.969 101.051 12.7974 100.871 14.1444ZM115.999 12.9302C115.079 12.9302 113.984 13.5626 113.984 15.2322V21.885H110.052V9.38876H113.884V10.7231C114.456 9.78086 115.738 9.19273 117.418 9.21172V12.9302H115.999ZM122.8 28.0067C121.506 28.0067 120.262 27.8043 119.142 27.2731V23.7569C119.913 24.2376 121.008 24.5664 122.178 24.5664C124.691 24.5664 125.798 23.3775 125.798 21.1261V20.4052C125.388 21.3854 124.311 22.2392 122.725 22.2392C119.857 22.2392 117.898 19.5578 117.898 15.6369C117.898 11.6907 119.839 9.03464 122.725 9.03464C124.137 9.03464 125.332 9.76821 125.786 10.799V9.38876H129.618V21.025C129.618 25.5277 127.129 28.0067 122.8 28.0067ZM123.82 18.9507C124.977 18.9507 125.686 17.6922 125.686 15.6369C125.686 13.5689 124.983 12.3231 123.82 12.3231C122.657 12.3231 121.954 13.5689 121.954 15.6369C121.954 17.6922 122.663 18.9507 123.82 18.9507ZM137.19 22.2392C133.539 22.2392 131.081 19.5641 131.081 15.5863C131.081 11.6971 133.539 9.03464 137.14 9.03464C141.091 9.03464 143.249 11.8741 142.851 16.5476H135.168C135.224 18.1539 136.058 19.3048 137.19 19.3048C138.055 19.3048 138.608 18.9001 138.926 18.04H142.783C142.372 20.5191 140.077 22.2392 137.19 22.2392ZM135.206 14.1444H139.032C138.876 12.7405 138.217 11.969 137.14 11.969C136.108 11.969 135.386 12.7974 135.206 14.1444Z" fill="#F1F0EC"/>
</g>
</g>
</g>
<defs>
<clipPath id="clip0_5226_205">
<rect width="145" height="28" fill="white"/>
</clipPath>
<clipPath id="clip1_5226_205">
<rect width="145" height="28" fill="white"/>
</clipPath>
</defs>
</svg>
