<svg width="73" height="51" viewBox="0 0 73 51" fill="none" xmlns="http://www.w3.org/2000/svg">
<path d="M72.0353 45.6948H62.9084V48.562H72.0353V45.6948Z" fill="url(#paint0_linear_3895_70366)"/>
<path d="M64.5335 45.6948H7.18579V48.562H64.5335V45.6948Z" fill="#1D0C17"/>
<path d="M0 48.5571H8.07592V45.6899H0V48.5571Z" fill="url(#paint1_linear_3895_70366)"/>
<rect x="30.0334" y="45.25" width="1.4375" height="0.8125" fill="#1D0C17"/>
<path d="M29.2424 32.6743H24.0587C22.1883 32.6743 20.6699 35.6659 20.6699 39.3564C20.6699 43.0468 22.1883 46.0384 24.0587 46.0384H29.2424C31.1128 46.0384 32.6312 43.0468 32.6312 39.3564C32.6312 35.6659 31.1128 32.6743 29.2424 32.6743Z" fill="#1D0C17"/>
<path d="M37.2168 32.6743H32.0331C30.1627 32.6743 28.6443 35.6659 28.6443 39.3564C28.6443 43.0468 30.1627 46.0384 32.0331 46.0384H37.2168C39.0872 46.0384 40.6056 43.0468 40.6056 39.3564C40.6056 35.6659 39.0872 32.6743 37.2168 32.6743Z" fill="#1D0C17"/>
<path d="M8.88483 32.6743H4.01785C2.26312 32.6743 0.835205 35.6659 0.835205 39.3564C0.835205 43.0468 2.25809 46.0384 4.01785 46.0384H8.88483C10.6396 46.0384 12.0624 43.0468 12.0624 39.3564C12.0624 35.6659 10.6396 32.6743 8.88483 32.6743Z" fill="#1D0C17"/>
<path d="M67.4192 32.6743H62.2355C60.3651 32.6743 58.8467 35.6659 58.8467 39.3564C58.8467 43.0468 60.3651 46.0384 62.2355 46.0384H67.4192C69.2896 46.0384 70.808 43.0468 70.808 39.3564C70.808 35.6659 69.2896 32.6743 67.4192 32.6743Z" fill="#1D0C17"/>
<path d="M0.846088 39.4377C0.827405 39.0173 0.447647 30.3203 0.54921 30.0312C0.650772 29.7422 9.98588 30.8342 9.98588 30.8342L9.33226 38.2654C9.33226 38.2654 7.49708 37.7727 7.37138 37.7727C7.24569 37.7727 5.12392 34.3839 5.12392 34.3839L3.69601 33.7303L2.42898 34.5448L0.875368 39.3062C0.875368 39.3062 0.86477 39.8581 0.846088 39.4377Z" fill="#1D0C17"/>
<path d="M30.032 43.8215H8.75903V40.3523H28.9309L30.032 43.8215Z" fill="#1D0C17"/>
<path d="M68.7666 43.8215H36.8496V40.3523H67.6654L68.7666 43.8215Z" fill="#1D0C17"/>
<path d="M36.2362 33.3282V30.6735L30.9268 29.9395L26.7637 31.2065V41.6594L28.8854 41.2119L29.0463 38.6779L29.4988 35.9025L30.8061 33.9819L36.2362 33.3282Z" fill="#1D0C17"/>
<path d="M38.0866 42.4736H70.2952L70.846 40.375C71.027 39.7616 70.9398 40.7344 71.2679 39.8281C72.1116 37.1719 72.0671 32.7088 72.0218 32.1055C72.0017 31.8541 71.4666 31.0151 70.9739 30.4821C70.6019 30.0799 68.9571 29.2666 65.3773 27.8438C61.4907 26.3002 52.9085 24.6875 52.9085 24.6875L46.2468 20.0895C46.2468 20.0895 47.2273 19.7727 46.8351 19.3102C46.4429 18.8476 43.6223 17.5404 37.5034 17.2839C37.5034 17.2839 18.4075 17.1934 15.8785 17.5052C13.3495 17.8119 31.8571 28.7123 33.0939 29.743C33.3101 29.924 34.5118 31.543 34.6576 31.7743C35.6179 33.3379 36.9302 35.0826 37.3576 37.9586C37.7849 40.8395 38.0816 42.4736 38.0816 42.4736H38.0866Z" fill="#5C4D53"/>
<mask id="mask0_3895_70366" style="mask-type:alpha" maskUnits="userSpaceOnUse" x="15" y="17" width="58" height="26">
<path d="M38.0866 42.4736H70.2952L70.846 40.375C71.027 39.7616 70.9398 40.7344 71.2679 39.8281C72.1116 37.1719 72.0671 32.7088 72.0218 32.1055C72.0017 31.8541 71.4666 31.0151 70.9739 30.4821C70.6019 30.0799 68.9571 29.2666 65.3773 27.8438C61.4907 26.3002 52.9085 24.6875 52.9085 24.6875L46.2468 20.0895C46.2468 20.0895 47.2273 19.7727 46.8351 19.3102C46.4429 18.8476 43.6223 17.5404 37.5034 17.2839C37.5034 17.2839 18.4075 17.1934 15.8785 17.5052C13.3495 17.8119 31.8571 28.7123 33.0939 29.743C33.3101 29.924 34.5118 31.543 34.6576 31.7743C35.6179 33.3379 36.9302 35.0826 37.3576 37.9586C37.7849 40.8395 38.0816 42.4736 38.0816 42.4736H38.0866Z" fill="#E7E5E5"/>
</mask>
<g mask="url(#mask0_3895_70366)">
<rect x="23.9678" y="-0.996094" width="55.7164" height="33.033" transform="rotate(28.275 23.9678 -0.996094)" fill="url(#paint2_linear_3895_70366)"/>
<rect x="74.4536" y="36.3237" width="6.625" height="39.2661" transform="rotate(90 74.4536 36.3237)" fill="url(#paint3_linear_3895_70366)"/>
</g>
<path d="M30.6303 27.0935C29.5745 26.4701 28.7398 25.3489 27.7845 23.941C26.8293 22.5332 25.0343 19.8031 22.8723 18.5109C21.6053 17.7568 19.2321 17.2389 15.6473 17.5305C13.1484 17.7366 9.17136 19.1042 7.34624 20.3662C5.52112 21.6282 5.55632 21.588 3.54014 22.6439C1.60441 23.6545 0.101074 23.8807 0.101074 23.8807L0.608889 33.6096C1.53905 31.3974 2.98205 30.4723 4.31443 30.8896C5.88313 31.3823 7.59763 33.856 8.64846 38.3811C9.23672 40.9101 9.14622 41.6894 9.82498 41.6894H28.2672C27.4477 38.9191 27.5985 34.8867 28.4734 33.0817C29.3231 31.322 31.1934 29.9292 33.5515 31.4175C35.9096 32.9007 37.0208 37.5867 37.1314 42.4738H38.9515C39.3386 39.4068 39.5297 34.7208 37.966 31.9555C36.2615 28.9438 32.4705 27.9533 30.6404 27.0935H30.6303Z" fill="#473A40"/>
<mask id="mask1_3895_70366" style="mask-type:alpha" maskUnits="userSpaceOnUse" x="0" y="17" width="40" height="26">
<path d="M30.6303 27.0935C29.5745 26.4701 28.7398 25.3489 27.7845 23.941C26.8293 22.5332 25.0343 19.8031 22.8723 18.5109C21.6053 17.7568 19.2321 17.2389 15.6473 17.5305C13.1484 17.7366 9.17136 19.1042 7.34624 20.3662C5.52112 21.6282 5.55632 21.588 3.54014 22.6439C1.60441 23.6545 0.101074 23.8807 0.101074 23.8807L0.608889 33.6096C1.53905 31.3974 2.98205 30.4723 4.31443 30.8896C5.88313 31.3823 7.59763 33.856 8.64846 38.3811C9.23672 40.9101 9.14622 41.6894 9.82498 41.6894H28.2672C27.4477 38.9191 27.5985 34.8867 28.4734 33.0817C29.3231 31.322 31.1934 29.9292 33.5515 31.4175C35.9096 32.9007 37.0208 37.5867 37.1314 42.4738H38.9515C39.3386 39.4068 39.5297 34.7208 37.966 31.9555C36.2615 28.9438 32.4705 27.9533 30.6404 27.0935H30.6303Z" fill="#B9B2B4"/>
</mask>
<g mask="url(#mask1_3895_70366)">
<path d="M39.3751 28.823H-3.44263V42.6702H39.3751V28.823Z" fill="url(#paint4_linear_3895_70366)"/>
<path d="M26.491 59.1688L1.21216 23.1536L24.3128 5.87109L51.1107 41.8863L26.491 59.1688Z" fill="url(#paint5_linear_3895_70366)"/>
</g>
<path d="M8.44235 26.6311H25.6628C25.6628 26.6311 27.5131 26.7417 27.317 25.7411C27.1209 24.7406 25.0997 21.3317 23.0735 19.8133C20.7908 18.1038 14.7121 18.2194 12.1982 19.3457C8.7038 20.6529 6.31556 22.5786 4.90273 23.3328C4.90273 23.3328 4.34463 26.626 8.44738 26.626L8.44235 26.6311Z" fill="#AC2A9E"/>
<path d="M48.7858 19.3604C46.1814 17.9676 44.5172 17.8269 42.0183 17.4699C40.0675 17.1883 32.8626 17.1682 27.9353 17.1682C23.0079 17.1682 19.4784 17.2034 17.9348 17.3744C20.9415 17.3744 23.7269 17.6308 25.6979 19.7978C27.6688 21.9648 30.0771 25.062 30.7559 25.8262C31.4296 26.5904 32.1335 26.696 37.5687 26.696H61.7728C61.7728 26.696 51.4003 20.7531 48.7909 19.3604H48.7858Z" fill="#AC2A9E"/>
<mask id="mask2_3895_70366" style="mask-type:luminance" maskUnits="userSpaceOnUse" x="4" y="17" width="58" height="10">
<path d="M8.44235 26.6307H25.6628C25.6628 26.6307 27.5131 26.7413 27.317 25.7407C27.1209 24.7402 25.0997 21.3313 23.0735 19.8129C20.7908 18.1034 14.7121 18.219 12.1982 19.3453C8.7038 20.6525 6.59209 22.4626 4.90273 23.3324C4.90273 23.3324 4.34463 26.6256 8.44738 26.6256L8.44235 26.6307ZM61.768 26.696H37.5638C32.1287 26.696 31.4298 26.5904 30.751 25.8262C30.0773 25.062 27.6639 21.9648 25.693 19.7978C23.7221 17.6308 20.9366 17.3693 17.9299 17.3744C19.4735 17.2034 23.0031 17.1682 27.9304 17.1682C32.8577 17.1682 40.0627 17.1883 42.0135 17.4699C44.5123 17.8269 46.1765 17.9676 48.781 19.3604C51.3854 20.7531 61.763 26.696 61.763 26.696H61.768Z" fill="white"/>
</mask>
<g mask="url(#mask2_3895_70366)">
<rect x="3.84595" y="29.625" width="11.625" height="63" transform="rotate(-90 3.84595 29.625)" fill="url(#paint6_linear_3895_70366)"/>
</g>
<path d="M27.3621 25.907H24.8821C24.6207 25.907 24.0437 25.4579 24.0539 24.6967C24.0641 23.9354 24.4084 23.4282 24.4084 23.4282H20.8459C20.8459 23.4282 20.2053 24.7412 20.2053 25.6562C20.2053 26.5713 21.8465 27.3399 21.8465 27.3399H26.2053C27.2008 27.3399 27.3571 25.907 27.3571 25.907H27.3621Z" fill="#1D0C17"/>
<path d="M70.265 42.7957H36.3621V39.0046H71.517C71.517 39.0046 70.8784 41.5186 70.265 42.7957Z" fill="#1D0C17"/>
<path d="M28.6241 39.8945H8.15063V42.2928H28.6241V39.8945Z" fill="#1D0C17"/>
<path d="M2.07203 25.7964C1.47371 25.8467 0.67428 25.8919 0.20166 25.8165L0.473165 31.136C0.473165 31.136 1.36813 31.0254 1.65472 30.3919C1.93628 29.7734 2.11225 28.0388 2.07203 25.7964Z" fill="#1D0C17"/>
<path d="M63.8948 30.3225C64.2294 30.8227 64.5271 31.4287 64.7629 31.9875C64.8113 32.1021 64.8542 32.215 64.8967 32.3225C61.4526 32.3307 57.2587 32.3403 53.4856 32.3372C53.4202 32.1657 53.3467 31.9793 53.2649 31.7854C53.0726 31.3298 52.8302 30.8198 52.55 30.3499C56.6811 30.3517 60.6928 30.3374 63.8948 30.3225ZM39.3079 30.261C43.0653 30.3241 47.5485 30.3451 51.9358 30.3489C52.2632 30.844 52.5547 31.4385 52.7864 31.9875C52.8367 32.1069 52.881 32.2245 52.925 32.3362C48.8578 32.3317 45.3609 32.3171 43.9543 32.2776C39.6605 32.1619 39.3079 30.2659 39.3079 30.2659V30.261ZM70.762 30.301C72.1037 31.2886 72.0334 32.3059 72.0334 32.3059C71.9942 32.3061 69.2421 32.3122 65.4553 32.3215C65.3914 32.1545 65.3208 31.9733 65.2415 31.7854C65.045 31.3199 64.7961 30.7978 64.5081 30.3196C68.2253 30.3018 70.7091 30.2868 70.762 30.301Z" fill="#B9B2B4"/>
<mask id="mask3_3895_70366" style="mask-type:luminance" maskUnits="userSpaceOnUse" x="29" y="33" width="6" height="12">
<path d="M29.2969 39.2604C29.2969 36.2255 30.3652 33.7708 31.6797 33.7708C32.9942 33.7708 34.0625 36.2307 34.0625 39.2604C34.0625 42.29 32.9942 44.75 31.6797 44.75C30.3652 44.75 29.2969 42.29 29.2969 39.2604Z" fill="white"/>
</mask>
<g mask="url(#mask3_3895_70366)">
<path d="M34.0625 39.2604C34.0625 42.2952 32.9942 44.75 31.6797 44.75C30.3652 44.75 29.2969 42.29 29.2969 39.2604C29.2969 36.2307 30.3652 33.7708 31.6797 33.7708C32.9942 33.7708 34.0625 36.2307 34.0625 39.2604Z" fill="#473A40"/>
<path opacity="0.7" d="M30.5118 48.2559L38.8035 43.6902L32.9654 31.9579L24.6738 36.5237L30.5118 48.2559Z" fill="url(#paint7_linear_3895_70366)" fill-opacity="0.3"/>
<path d="M32.9746 39.4158C32.9746 41.7049 32.2705 43.5589 31.3991 43.5589C30.5277 43.5589 29.8237 41.7049 29.8237 39.4158C29.8237 37.1267 30.5277 35.2727 31.3991 35.2727C32.2705 35.2727 32.9746 37.1267 32.9746 39.4158Z" fill="#473A40"/>
</g>
<mask id="mask4_3895_70366" style="mask-type:luminance" maskUnits="userSpaceOnUse" x="1" y="33" width="6" height="12">
<path d="M1.71875 39.2604C1.71875 36.2255 2.78708 33.7708 4.10156 33.7708C5.41605 33.7708 6.48438 36.2307 6.48438 39.2604C6.48438 42.29 5.41605 44.75 4.10156 44.75C2.78708 44.75 1.71875 42.29 1.71875 39.2604Z" fill="white"/>
</mask>
<g mask="url(#mask4_3895_70366)">
<path d="M6.48438 39.2604C6.48438 42.2952 5.41605 44.75 4.10156 44.75C2.78708 44.75 1.71875 42.29 1.71875 39.2604C1.71875 36.2307 2.78708 33.7708 4.10156 33.7708C5.41605 33.7708 6.48438 36.2307 6.48438 39.2604Z" fill="#473A40"/>
<path opacity="0.7" d="M2.93369 48.2559L11.2253 43.6902L5.38728 31.9579L-2.90437 36.5237L2.93369 48.2559Z" fill="url(#paint8_linear_3895_70366)" fill-opacity="0.3"/>
<path d="M5.39643 39.4158C5.39643 41.7049 4.69242 43.5589 3.82102 43.5589C2.94962 43.5589 2.24561 41.7049 2.24561 39.4158C2.24561 37.1267 2.94962 35.2727 3.82102 35.2727C4.69242 35.2727 5.39643 37.1267 5.39643 39.4158Z" fill="#473A40"/>
</g>
<defs>
<linearGradient id="paint0_linear_3895_70366" x1="62.9126" y1="47.1259" x2="72.0353" y2="47.1259" gradientUnits="userSpaceOnUse">
<stop offset="0.45" stop-color="#1D0C17"/>
<stop offset="1" stop-color="#1D0C17" stop-opacity="0"/>
</linearGradient>
<linearGradient id="paint1_linear_3895_70366" x1="8.07592" y1="47.126" x2="0" y2="47.126" gradientUnits="userSpaceOnUse">
<stop offset="0.45" stop-color="#1D0C17"/>
<stop offset="1" stop-color="#1D0C17" stop-opacity="0"/>
</linearGradient>
<linearGradient id="paint2_linear_3895_70366" x1="23.9678" y1="15.5204" x2="79.6841" y2="15.5204" gradientUnits="userSpaceOnUse">
<stop stop-color="#473A40"/>
<stop offset="1" stop-color="#473A40" stop-opacity="0"/>
</linearGradient>
<linearGradient id="paint3_linear_3895_70366" x1="74.4536" y1="55.9568" x2="81.0786" y2="55.9568" gradientUnits="userSpaceOnUse">
<stop stop-color="#31222A"/>
<stop offset="1" stop-color="#31222A" stop-opacity="0"/>
</linearGradient>
<linearGradient id="paint4_linear_3895_70366" x1="17.9662" y1="33.2652" x2="17.9662" y2="43.2816" gradientUnits="userSpaceOnUse">
<stop stop-color="#1D0C17" stop-opacity="0.4"/>
<stop offset="0.9" stop-color="#1D0C17" stop-opacity="0"/>
</linearGradient>
<linearGradient id="paint5_linear_3895_70366" x1="34.1252" y1="22.3862" x2="13.477" y2="34.1055" gradientUnits="userSpaceOnUse">
<stop offset="0.11" stop-color="#1D0C17" stop-opacity="0.6"/>
<stop offset="0.93" stop-color="#1D0C17" stop-opacity="0"/>
</linearGradient>
<linearGradient id="paint6_linear_3895_70366" x1="3.84595" y1="61.125" x2="15.4709" y2="61.125" gradientUnits="userSpaceOnUse">
<stop offset="0.115385" stop-color="#42003B"/>
<stop offset="0.913462" stop-color="#42003B" stop-opacity="0"/>
</linearGradient>
<linearGradient id="paint7_linear_3895_70366" x1="28.4245" y1="41.1823" x2="36.8987" y2="36.9655" gradientUnits="userSpaceOnUse">
<stop offset="0.09" stop-color="#CFCBCC"/>
<stop offset="0.22" stop-color="#CFCBCC" stop-opacity="0.88"/>
<stop offset="0.79" stop-color="#CFCBCC" stop-opacity="0"/>
</linearGradient>
<linearGradient id="paint8_linear_3895_70366" x1="0.846364" y1="41.1823" x2="9.32054" y2="36.9655" gradientUnits="userSpaceOnUse">
<stop offset="0.09" stop-color="#CFCBCC"/>
<stop offset="0.22" stop-color="#CFCBCC" stop-opacity="0.88"/>
<stop offset="0.79" stop-color="#CFCBCC" stop-opacity="0"/>
</linearGradient>
</defs>
</svg>
