<svg width="72" height="51" viewBox="0 0 72 51" fill="none" xmlns="http://www.w3.org/2000/svg">
<g clip-path="url(#clip0_3895_70370)">
<path d="M71.9393 45.6948H61.0791V48.562H71.9393V45.6948Z" fill="url(#paint0_linear_3895_70370)"/>
<path d="M61.4156 45.6948H7.08984V48.562H61.4156V45.6948Z" fill="#1D0C17"/>
<path d="M-0.0959473 48.5571H7.97997V45.6899H-0.0959473V48.5571Z" fill="url(#paint1_linear_3895_70370)"/>
<rect x="17.0625" y="42.6875" width="17.1875" height="25.125" transform="rotate(-180 17.0625 42.6875)" fill="url(#paint2_linear_3895_70370)"/>
<path d="M50.875 24.3301H54.5023C54.5023 24.3301 56.0497 25.5016 56.1562 25.8757C56.2627 26.2498 56.1058 27.6084 56.1058 27.6084L51.6263 27.0915L50.8806 24.3301H50.875Z" fill="#A1989B"/>
<path d="M26.4397 32.3438H2.84692V46.3675H26.4397V32.3438Z" fill="url(#paint3_linear_3895_70370)"/>
<path d="M28.773 30.5225H22.3887C20.085 30.5225 18.2195 34.1108 18.2195 38.536C18.2195 42.9612 20.085 46.5496 22.3887 46.5496H28.773C31.0766 46.5496 32.9422 42.9612 32.9422 38.536C32.9422 34.1108 31.0766 30.5225 28.773 30.5225Z" fill="#1D0C17"/>
<path d="M37.003 30.2812H30.5252C28.1871 30.2812 26.292 33.9238 26.292 38.4179C26.292 42.912 28.1871 46.5545 30.5252 46.5545H37.003C39.3411 46.5545 41.2362 42.912 41.2362 38.4179C41.2362 33.9238 39.3411 30.2812 37.003 30.2812Z" fill="#1D0C17"/>
<path d="M12.5785 30.2812H6.49942C4.30406 30.2812 2.5271 33.9238 2.5271 38.4179C2.5271 42.912 4.30406 46.5545 6.49942 46.5545H12.5785C14.7739 46.5545 16.5508 42.912 16.5508 38.4179C16.5508 33.9238 14.7739 30.2812 12.5785 30.2812Z" fill="#1D0C17"/>
<path d="M67.0933 30.5225H60.709C58.4054 30.5225 56.5398 34.1108 56.5398 38.536C56.5398 42.9612 58.4054 46.5496 60.709 46.5496H67.0933C69.3969 46.5496 71.2625 42.9612 71.2625 38.536C71.2625 34.1108 69.3969 30.5225 67.0933 30.5225Z" fill="#1D0C17"/>
<path d="M2.77316 39.7322C2.72886 39.7765 2.02989 29.5479 1.99543 28.6618C1.96098 27.7758 14.5769 27.8792 14.5769 27.8792L11.7417 38.1816C11.7417 38.1816 9.76288 37.6549 9.62997 37.6549C9.49707 37.6549 7.20819 34.0026 7.20819 34.0026L5.66749 33.2987L4.30401 34.1798C4.30401 34.1798 6.46983 40.0374 4.38276 39.8946C2.29569 39.7519 2.77316 39.742 2.77316 39.742V39.7322Z" fill="#1D0C17"/>
<path d="M28.9649 44.1672H11.1707V40.4263H27.7737L28.9649 44.1672Z" fill="#1D0C17"/>
<path d="M35.6542 32.8557V29.9959L29.9345 29.2034L25.4453 30.5669V41.8341L27.7342 41.3517L27.9065 38.6198L28.3938 35.627L29.8016 33.5596L35.6542 32.8557Z" fill="#1D0C17"/>
<path d="M71.9123 32.6685C71.8877 32.3978 71.4545 31.7923 70.9229 31.2214C70.5242 30.7882 69.6431 30.0548 68.9392 29.6659C68.2353 29.277 64.8881 27.697 60.3842 27.0521C55.8802 26.4122 45.2283 24.7829 45.2283 24.7829L43.1117 20.1707C43.1117 20.1707 43.4858 19.9295 43.0674 19.4324C42.6441 18.9352 39.5479 17.5176 32.2727 17.5176H17.5992C15.9503 17.5176 14.6262 17.5274 11.1411 19.9443C7.65613 22.3612 7.33125 25.1915 5.15558 26.3335C3.06851 27.4262 1.9856 27.8643 1.9856 27.8643L2.56151 32.0582C2.56151 32.0582 2.98975 31.5265 3.98406 29.0014C4.9833 26.4713 31.7165 28.0908 33.0554 29.1983C33.2916 29.3952 33.7987 30.9309 33.9562 31.182C34.9899 32.8703 36.4075 34.7458 36.8653 37.8468C37.323 40.9528 37.6479 42.715 37.6479 42.715L70.5734 42.8676C71.2527 41.7305 71.7344 38.2031 71.8434 37.3743C71.9524 36.5454 71.9714 33.3134 71.9172 32.6685H71.9123Z" fill="#E7E5E5"/>
<mask id="mask0_3895_70370" style="mask-type:alpha" maskUnits="userSpaceOnUse" x="1" y="17" width="71" height="26">
<path d="M71.9123 32.6685C71.8877 32.3978 71.4545 31.7923 70.9229 31.2214C70.5242 30.7882 69.6431 30.0548 68.9392 29.6659C68.2353 29.277 64.8881 27.697 60.3842 27.0521C55.8802 26.4122 45.2283 24.7829 45.2283 24.7829L43.1117 20.1707C43.1117 20.1707 43.4858 19.9295 43.0674 19.4324C42.6441 18.9352 39.5479 17.5176 32.2727 17.5176H17.5992C15.9503 17.5176 14.6262 17.5274 11.1411 19.9443C7.65613 22.3612 7.33125 25.1915 5.15558 26.3335C3.06851 27.4262 1.9856 27.8643 1.9856 27.8643L2.56151 32.0582C2.56151 32.0582 2.98975 31.5265 3.98406 29.0014C4.9833 26.4713 31.7165 28.0908 33.0554 29.1983C33.2916 29.3952 33.7987 30.9309 33.9562 31.182C34.9899 32.8703 36.4075 34.7458 36.8653 37.8468C37.323 40.9528 37.6479 42.715 37.6479 42.715L70.5734 42.8676C71.2527 41.7305 71.7344 38.2031 71.8434 37.3743C71.9524 36.5454 71.9714 33.3134 71.9172 32.6685H71.9123Z" fill="#E7E5E5"/>
</mask>
<g mask="url(#mask0_3895_70370)">
<path d="M72.4563 24.604L18.2283 -0.33667L4.86377 31.6358L59.0918 56.5765L72.4563 24.604Z" fill="url(#paint4_linear_3895_70370)"/>
<path opacity="0.39" d="M73.6417 38.3335H32.2766V41.1756H73.6417V38.3335Z" fill="url(#paint5_linear_3895_70370)"/>
</g>
<path d="M39.6661 33.6038C37.0031 29.5921 31.4458 27.8447 30.1118 27.4214C28.7828 26.998 27.311 26.3483 25.9475 24.8913C24.5791 23.4343 21.1335 19.9837 19.7996 18.8713C18.4656 17.7588 16.7329 17.4536 14.828 17.9459C12.928 18.4381 12.8886 18.6891 11.1707 19.8803C8.0647 22.0314 4.47632 24.6452 1.7395 25.2752C1.7838 29.09 2.30065 33.8007 2.30065 33.8007C2.94055 30.6996 4.53047 29.1048 6.37634 29.4887C8.22222 29.8727 10.0582 31.945 10.8114 35.4841C11.6039 39.2153 10.644 41.8733 10.644 41.8733H25.8294C25.3864 39.801 24.8745 36.5671 25.6621 33.5103C26.4447 30.4535 29.2701 28.4501 32.1595 29.9465C35.3837 31.6201 36.0039 37.1873 35.0539 42.715H39.2428C39.7793 40.6526 41.064 35.7106 39.6661 33.6038Z" fill="#B9B2B4"/>
<mask id="mask1_3895_70370" style="mask-type:alpha" maskUnits="userSpaceOnUse" x="1" y="17" width="40" height="26">
<path d="M39.6661 33.6038C37.0031 29.5921 31.4458 27.8447 30.1118 27.4214C28.7828 26.998 27.311 26.3483 25.9475 24.8913C24.5791 23.4343 21.1335 19.9837 19.7996 18.8713C18.4656 17.7588 16.7329 17.4536 14.828 17.9459C12.928 18.4381 12.8886 18.6891 11.1707 19.8803C8.0647 22.0314 4.47632 24.6452 1.7395 25.2752C1.7838 29.09 2.30065 33.8007 2.30065 33.8007C2.94055 30.6996 4.53047 29.1048 6.37634 29.4887C8.22222 29.8727 10.0582 31.945 10.8114 35.4841C11.6039 39.2153 10.644 41.8733 10.644 41.8733H25.8294C25.3864 39.801 24.8745 36.5671 25.6621 33.5103C26.4447 30.4535 29.2701 28.4501 32.1595 29.9465C35.3837 31.6201 36.0039 37.1873 35.0539 42.715H39.2428C39.7793 40.6526 41.064 35.7106 39.6661 33.6038Z" fill="#B9B2B4"/>
</mask>
<g mask="url(#mask1_3895_70370)">
<path d="M44.3945 28.095H1.5957V41.9762H44.3945V28.095Z" fill="url(#paint6_linear_3895_70370)"/>
<path d="M27.9223 53.4093L5.58057 21.5786L25.9972 6.3042L49.6814 38.1348L27.9223 53.4093Z" fill="url(#paint7_linear_3895_70370)"/>
</g>
<path d="M69.8301 30.2761C67.8858 30.5026 68.0532 32.6487 68.0532 32.6487L71.9024 32.6241C71.9024 32.6241 71.8867 31.6797 69.8555 30.2773L69.8301 30.2761Z" fill="white"/>
<path d="M20.7495 18.502C20.7495 18.502 28.9206 18.2411 34.8471 18.3691C40.7686 18.502 42.6096 19.0927 42.6096 19.0927L54.1131 26.1217H30.0773C29.2996 26.1217 28.8517 25.8363 27.8721 24.9256C26.9221 24.0396 22.1327 19.6686 20.7495 18.502Z" fill="#AC2A9E"/>
<path d="M24.9334 25.8609C24.4166 24.7288 21.0152 20.5694 19.2826 19.4865C17.7124 18.5021 16.3144 18.4184 13.996 19.2945C12.4356 19.8852 10.0778 22.7156 6.86353 24.2464C8.34023 26.2941 12.1649 26.7913 14.9952 26.7913C18.3424 26.7913 20.7051 26.8996 22.1474 26.8996C24.2148 26.8996 25.2977 26.6534 24.9383 25.8609H24.9334Z" fill="#AC2A9E"/>
<mask id="mask2_3895_70370" style="mask-type:luminance" maskUnits="userSpaceOnUse" x="6" y="18" width="49" height="9">
<path d="M20.7494 18.502C20.7494 18.502 28.9205 18.2411 34.847 18.3691C40.7686 18.502 42.6095 19.0927 42.6095 19.0927L54.113 26.1217H30.0773C29.2995 26.1217 28.8516 25.8363 27.8721 24.9256C26.922 24.0396 22.1326 19.6686 20.7494 18.502ZM24.9334 25.8609C24.4166 24.7287 21.0152 20.5694 19.2826 19.4864C17.7124 18.502 16.3144 18.4183 13.996 19.2945C12.4356 19.8851 10.9343 21.9771 6.86353 24.2463C8.34023 26.294 12.1649 26.7912 14.9952 26.7912C18.3424 26.7912 20.7051 26.8995 22.1474 26.8995C24.2148 26.8995 25.2977 26.6534 24.9383 25.8609H24.9334Z" fill="white"/>
</mask>
<g mask="url(#mask2_3895_70370)">
<rect x="4.3125" y="27.875" width="10.1875" height="52.4375" transform="rotate(-90 4.3125 27.875)" fill="url(#paint8_linear_3895_70370)"/>
</g>
<path d="M23.5849 26.8505H22.3494C21.8079 26.8505 20.5134 24.2219 20.5134 24.2219H17.5747C17.5747 24.2219 16.7527 25.167 16.7527 26.117C16.7527 27.067 18.1654 28.2829 18.1654 28.2829H22.7038C23.516 28.2829 23.58 26.8505 23.58 26.8505H23.5849Z" fill="#CFCBCC"/>
<path d="M69.6677 44.167H34.4583V41.8535H70.9721C70.9721 41.8535 70.4996 43.6256 69.6677 44.167Z" fill="#1D0C17"/>
<path d="M42.3555 29.2754C44.1573 29.2896 46.0627 29.4222 48.0342 29.749C51.1795 30.2708 52.5823 31.3937 52.666 32.7178C49.8906 32.8483 47.0582 32.8509 44.874 32.7783C44.715 32.4975 44.4853 32.1074 44.1924 31.6592C43.7284 30.9492 43.1032 30.0872 42.3555 29.2754ZM41.5645 29.2764C42.4468 30.1592 43.1847 31.1595 43.7148 31.9707C43.904 32.2601 44.0643 32.5255 44.1973 32.75C43.2253 32.708 42.4178 32.6532 41.8516 32.585C41.2265 32.5062 40.5225 32.0041 39.9072 31.4922C38.8053 30.5764 37.9326 29.475 37.9238 29.4639V29.459C39.0718 29.3603 40.2899 29.2903 41.5645 29.2764Z" fill="white"/>
<path d="M1.78369 26.4712C1.90183 26.5106 3.22101 26.422 4.35315 26.2251C5.33762 26.0528 3.69848 27.3966 3.14226 27.8741C2.61557 28.3171 1.89198 29.0161 1.89198 29.0161L1.78861 26.4712H1.78369Z" fill="#746A6E"/>
<mask id="mask3_3895_70370" style="mask-type:luminance" maskUnits="userSpaceOnUse" x="27" y="32" width="7" height="13">
<path d="M27.0312 38.6094C27.0312 35.0937 28.3903 32.25 30.0625 32.25C31.7347 32.25 33.0937 35.0997 33.0937 38.6094C33.0937 42.119 31.7347 44.9688 30.0625 44.9688C28.3903 44.9688 27.0312 42.119 27.0312 38.6094Z" fill="white"/>
</mask>
<g mask="url(#mask3_3895_70370)">
<path d="M33.0937 38.6094C33.0937 42.125 31.7347 44.9688 30.0625 44.9688C28.3903 44.9688 27.0312 42.119 27.0312 38.6094C27.0312 35.0997 28.3903 32.25 30.0625 32.25C31.7347 32.25 33.0937 35.0997 33.0937 38.6094Z" fill="#746A6E"/>
<path opacity="0.7" d="M28.5769 49.0303L39.125 43.7412L31.6982 30.1501L21.1502 35.4393L28.5769 49.0303Z" fill="url(#paint9_linear_3895_70370)"/>
<path opacity="0.39" d="M31.7097 38.7893C31.7097 41.441 30.8141 43.5888 29.7055 43.5888C28.597 43.5888 27.7014 41.441 27.7014 38.7893C27.7014 36.1375 28.597 33.9897 29.7055 33.9897C30.8141 33.9897 31.7097 36.1375 31.7097 38.7893Z" fill="#746A6E"/>
</g>
<mask id="mask4_3895_70370" style="mask-type:luminance" maskUnits="userSpaceOnUse" x="3" y="32" width="6" height="13">
<path d="M3.25 38.6094C3.25 35.0937 4.52498 32.25 6.09375 32.25C7.66251 32.25 8.9375 35.0997 8.9375 38.6094C8.9375 42.119 7.66251 44.9688 6.09375 44.9688C4.52498 44.9688 3.25 42.119 3.25 38.6094Z" fill="white"/>
</mask>
<g mask="url(#mask4_3895_70370)">
<path d="M8.9375 38.6094C8.9375 42.125 7.66251 44.9688 6.09375 44.9688C4.52498 44.9688 3.25 42.119 3.25 38.6094C3.25 35.0997 4.52498 32.25 6.09375 32.25C7.66251 32.25 8.9375 35.0997 8.9375 38.6094Z" fill="#746A6E"/>
<path opacity="0.7" d="M4.70009 49.0303L14.5957 43.7412L7.62831 30.1501L-2.2673 35.4393L4.70009 49.0303Z" fill="url(#paint10_linear_3895_70370)"/>
<path opacity="0.39" d="M7.63899 38.7893C7.63899 41.441 6.79879 43.5888 5.75883 43.5888C4.71886 43.5888 3.87866 41.441 3.87866 38.7893C3.87866 36.1375 4.71886 33.9897 5.75883 33.9897C6.79879 33.9897 7.63899 36.1375 7.63899 38.7893Z" fill="#746A6E"/>
</g>
<path d="M69.4783 8.72029L64.211 8.58196L64.4398 0L56.1292 12.2797L61.3964 12.418L61.1677 21L69.4783 8.72029Z" fill="#820076"/>
</g>
<defs>
<linearGradient id="paint0_linear_3895_70370" x1="61.084" y1="47.1259" x2="71.9393" y2="47.1259" gradientUnits="userSpaceOnUse">
<stop offset="0.45" stop-color="#1D0C17"/>
<stop offset="1" stop-color="#1D0C17" stop-opacity="0"/>
</linearGradient>
<linearGradient id="paint1_linear_3895_70370" x1="7.97997" y1="47.126" x2="-0.0959473" y2="47.126" gradientUnits="userSpaceOnUse">
<stop offset="0.45" stop-color="#1D0C17"/>
<stop offset="1" stop-color="#1D0C17" stop-opacity="0"/>
</linearGradient>
<linearGradient id="paint2_linear_3895_70370" x1="17.0625" y1="55.25" x2="34.25" y2="55.25" gradientUnits="userSpaceOnUse">
<stop offset="0.480769" stop-color="#B9B2B4"/>
<stop offset="0.990385" stop-color="#B9B2B4" stop-opacity="0"/>
</linearGradient>
<linearGradient id="paint3_linear_3895_70370" x1="18.879" y1="39.3581" x2="1.81323" y2="39.3581" gradientUnits="userSpaceOnUse">
<stop stop-color="#1D0C17"/>
<stop offset="0.45" stop-color="#1D0C17" stop-opacity="0"/>
</linearGradient>
<linearGradient id="paint4_linear_3895_70370" x1="10.9938" y1="15.3988" x2="66.3263" y2="40.8461" gradientUnits="userSpaceOnUse">
<stop stop-color="#CFCBCC"/>
<stop offset="0.94" stop-color="#CFCBCC" stop-opacity="0"/>
</linearGradient>
<linearGradient id="paint5_linear_3895_70370" x1="52.9566" y1="39.2454" x2="52.9566" y2="41.3023" gradientUnits="userSpaceOnUse">
<stop stop-color="#746A6E" stop-opacity="0.9"/>
<stop offset="1" stop-color="#746A6E" stop-opacity="0"/>
</linearGradient>
<linearGradient id="paint6_linear_3895_70370" x1="22.9951" y1="32.5481" x2="22.9951" y2="42.5892" gradientUnits="userSpaceOnUse">
<stop stop-color="#746A6E" stop-opacity="0.6"/>
<stop offset="0.9" stop-color="#746A6E" stop-opacity="0"/>
</linearGradient>
<linearGradient id="paint7_linear_3895_70370" x1="32.875" y1="21" x2="15.125" y2="32" gradientUnits="userSpaceOnUse">
<stop offset="0.11" stop-color="#746A6E" stop-opacity="0.79"/>
<stop offset="0.93" stop-color="#746A6E" stop-opacity="0"/>
</linearGradient>
<linearGradient id="paint8_linear_3895_70370" x1="4.3125" y1="54.0938" x2="14.5" y2="54.0938" gradientUnits="userSpaceOnUse">
<stop offset="0.115385" stop-color="#42003B"/>
<stop offset="0.913462" stop-color="#42003B" stop-opacity="0"/>
</linearGradient>
<linearGradient id="paint9_linear_3895_70370" x1="25.9216" y1="40.836" x2="36.2786" y2="35.1765" gradientUnits="userSpaceOnUse">
<stop offset="0.09" stop-color="#CFCBCC"/>
<stop offset="0.22" stop-color="#CFCBCC" stop-opacity="0.88"/>
<stop offset="0.79" stop-color="#CFCBCC" stop-opacity="0"/>
</linearGradient>
<linearGradient id="paint10_linear_3895_70370" x1="2.20899" y1="40.836" x2="12.2008" y2="35.7138" gradientUnits="userSpaceOnUse">
<stop offset="0.09" stop-color="#CFCBCC"/>
<stop offset="0.22" stop-color="#CFCBCC" stop-opacity="0.88"/>
<stop offset="0.79" stop-color="#CFCBCC" stop-opacity="0"/>
</linearGradient>
<clipPath id="clip0_3895_70370">
<rect width="72" height="51" fill="white"/>
</clipPath>
</defs>
</svg>
