<svg width="73" height="51" viewBox="0 0 73 51" fill="none" xmlns="http://www.w3.org/2000/svg">
<path d="M71.9999 45.6948H61.145V48.562H71.9999V45.6948Z" fill="url(#paint0_linear_3895_70373)"/>
<path d="M61.4814 45.6948H7.18237V48.562H61.4814V45.6948Z" fill="#1D0C17"/>
<path d="M0 48.5571H8.07195V45.6899H0V48.5571Z" fill="url(#paint1_linear_3895_70373)"/>
<path d="M28.6287 45.7812H8.94165V40.1299H27.4888L28.6287 45.7812Z" fill="#1D0C17"/>
<path d="M65.596 45.873H35.9834V42.2861H67.7178L65.596 45.873Z" fill="#1D0C17"/>
<path d="M31.4457 32.2017H26.0908C24.1606 32.2017 22.5901 35.292 22.5901 39.1018C22.5901 42.9115 24.1555 46.0019 26.0908 46.0019H31.4457C33.3759 46.0019 34.9464 42.9115 34.9464 39.1018C34.9464 35.292 33.381 32.2017 31.4457 32.2017Z" fill="#1D0C17"/>
<path d="M49.2175 21.5659H55.839C55.839 21.5659 57.3234 23.2175 57.4146 23.5772C57.5058 23.9369 57.369 25.2338 57.369 25.2338L53.5997 24.7424L49.3999 22.0979L49.2175 21.5659Z" fill="#A1989B"/>
<path d="M36.0509 32.2017H30.696C28.7658 32.2017 27.1953 35.292 27.1953 39.1018C27.1953 42.9115 28.7608 46.0019 30.696 46.0019H36.0509C37.9811 46.0019 39.5517 42.9115 39.5517 39.1018C39.5517 35.292 37.9862 32.2017 36.0509 32.2017Z" fill="#1D0C17"/>
<path d="M9.07363 32.2017H4.048C2.23432 32.2017 0.765137 35.292 0.765137 39.1018C0.765137 42.9115 2.23432 46.0019 4.048 46.0019H9.07363C10.8873 46.0019 12.3565 42.9115 12.3565 39.1018C12.3565 35.292 10.8873 32.2017 9.07363 32.2017Z" fill="#1D0C17"/>
<path d="M67.2836 32.2471H61.9287C59.9985 32.2471 58.428 35.3374 58.428 39.1472C58.428 42.9569 59.9934 46.0473 61.9287 46.0473H67.2836C69.2138 46.0473 70.7843 42.9569 70.7843 39.1472C70.7843 35.3374 69.2189 32.2471 67.2836 32.2471Z" fill="#1D0C17"/>
<path d="M0.764302 39.1113C0.755491 38.8566 0.350342 29.0591 0.350342 29.0591L10.2083 30.3071L9.53449 37.9823C9.53449 37.9823 7.63469 37.4757 7.50804 37.4757C7.38138 37.4757 5.18774 33.975 5.18774 33.975L3.71349 33.3012L2.40642 34.1422L0.861935 39.084L0.764302 39.1113Z" fill="#1D0C17"/>
<path d="M35.0376 32.8806L33.7002 30.1398L29.556 29.3799L25.2549 30.687V41.4829L27.4485 41.0219L27.6157 38.4078L28.0818 35.5403L29.4294 33.5595L35.0376 32.8857V32.8806Z" fill="#1D0C17"/>
<path d="M36.5555 43.5938H70.0022C70.8459 41.2344 72.5202 34.1828 71.6375 32.2434C71.6172 31.985 71.4072 31.3178 70.9006 30.7656C70.5156 30.3502 70.0294 30.0535 69.3556 29.6837C68.6818 29.3088 67.4314 28.802 66.0686 28.1687C62.1019 26.3347 52.1814 23.3261 52.1814 23.3261L47.1507 18.1329C47.1507 18.1329 47.4901 17.7377 46.6694 17.0994C45.8487 16.4611 40.0438 15.23 32.3582 15.23C24.6726 15.23 20.9117 15.23 18.9474 15.23C16.9832 15.23 14.3372 15.5998 10.9986 17.91C7.65495 20.2252 5.55757 22.8647 3.47031 23.9539C1.46918 25.0026 0 25.0077 0 25.0077L0.694063 32.1104C0.694063 32.1104 1.10442 31.6038 2.05686 29.1771C3.01436 26.7555 31.5621 29.5571 32.8438 30.6209C33.0668 30.8084 33.2643 31.0262 33.4113 31.2694C34.4042 32.8855 35.762 34.684 36.2027 37.6578C36.6435 40.6317 36.9525 42.3187 36.9525 42.3187L36.5555 43.5938Z" fill="#E7E5E5"/>
<mask id="mask0_3895_70373" style="mask-type:alpha" maskUnits="userSpaceOnUse" x="0" y="15" width="72" height="29">
<path d="M36.5555 43.5938H70.0022C70.8459 41.2344 72.5202 34.1828 71.6375 32.2434C71.6172 31.985 71.3838 31.2866 70.8772 30.7344C70.4922 30.319 70.0294 30.0535 69.3556 29.6837C68.6818 29.3088 67.4314 28.802 66.0686 28.1687C62.1019 26.3347 52.1814 23.3261 52.1814 23.3261L47.1507 18.1329C47.1507 18.1329 47.4901 17.7377 46.6694 17.0994C45.8487 16.4611 40.0438 15.23 32.3582 15.23C24.6726 15.23 20.9117 15.23 18.9474 15.23C16.9832 15.23 14.3372 15.5998 10.9986 17.91C7.65495 20.2252 5.55757 22.8647 3.47031 23.9539C1.46918 25.0026 0 25.0077 0 25.0077L0.694063 32.1104C0.694063 32.1104 1.10442 31.6038 2.05686 29.1771C3.01436 26.7555 31.5621 29.5571 32.8438 30.6209C33.0668 30.8084 33.2643 31.0262 33.4113 31.2694C34.4042 32.8855 35.762 34.684 36.2027 37.6578C36.6435 40.6317 36.9525 42.3187 36.9525 42.3187L36.5555 43.5938Z" fill="#E7E5E5"/>
</mask>
<g mask="url(#mask0_3895_70373)">
<path d="M73.6773 24.729L19.4492 -0.21167L6.08472 31.7608L60.3128 56.7015L73.6773 24.729Z" fill="url(#paint2_linear_3895_70373)"/>
<path opacity="0.39" d="M73.846 39H33.4976V43.0625H73.846V39Z" fill="url(#paint3_linear_3895_70373)"/>
</g>
<path d="M38.0756 32.4333C36.5255 29.4051 31.8359 26.6999 30.3414 25.8944C29.1205 25.2409 28.6037 24.5164 28.011 23.569C27.2105 22.2974 24.5964 18.4927 22.8841 17.0489C21.1717 15.605 19.2871 15.1187 15.4571 15.7165C14.1551 16.1015 12.6454 16.7652 10.9989 17.9051C7.6552 20.2203 5.55781 22.8598 3.47056 23.949C1.46943 24.9977 0.000244141 25.0078 0.000244141 25.0078L0.527124 33.1694C1.48463 30.8845 2.97914 30.4337 4.35207 30.8694C5.97324 31.381 7.89305 33.9112 8.72104 38.5625C9.54903 43.2138 9.97104 44.0312 10.7835 44.0312H26.9799C26.0648 40.2188 26.0017 35.1143 26.9085 33.25C27.79 31.4313 29.7132 29.9473 32.15 31.4874C34.5818 33.0225 35.7429 38.5428 35.8543 43.5938H38.3773C38.8607 38.998 38.8913 34.0267 38.0756 32.4333Z" fill="#B9B2B4"/>
<mask id="mask1_3895_70373" style="mask-type:alpha" maskUnits="userSpaceOnUse" x="0" y="15" width="39" height="30">
<path d="M38.0756 32.4333C36.5255 29.4051 31.8359 26.6999 30.3414 25.8944C29.1205 25.2409 28.6037 24.5164 28.011 23.569C27.2105 22.2974 24.5964 18.4927 22.8841 17.0489C21.1717 15.605 19.2871 15.1187 15.4571 15.7165C14.1551 16.1015 12.6454 16.7652 10.9989 17.9051C7.6552 20.2203 5.55781 22.8598 3.47056 23.949C1.46943 24.9977 0.000244141 25.0078 0.000244141 25.0078L0.527124 33.1694C1.48463 30.8845 2.97914 30.4337 4.35207 30.8694C5.97324 31.381 7.89305 33.9112 8.72104 38.5625C9.54903 43.2138 9.97104 44.0312 10.7835 44.0312H26.9799C26.0648 40.2188 26.0017 35.1143 26.9085 33.25C27.79 31.4313 29.7132 29.9473 32.15 31.4874C34.5818 33.0225 35.7429 38.5428 35.8543 43.5938H38.3773C38.8607 38.998 38.8913 34.0267 38.0756 32.4333Z" fill="#B9B2B4"/>
</mask>
<g mask="url(#mask1_3895_70373)">
<path d="M40.9905 27.5625H-1.80835V42.875H40.9905V27.5625Z" fill="url(#paint4_linear_3895_70373)"/>
<path d="M26.2682 51.5343L3.92651 19.7036L24.3431 4.4292L48.0274 36.2598L26.2682 51.5343Z" fill="url(#paint5_linear_3895_70373)"/>
</g>
<path d="M24.0593 16.5267C24.0593 16.5267 28.5586 16.2784 34.2327 16.4C40.8248 16.4684 46.6695 17.0941 46.6695 17.0941L56.0115 24.5261H30.6149C30.6149 24.5261 28.1021 21.147 27.2307 20.0173C26.2833 18.7811 24.3886 16.8307 24.0542 16.5267H24.0593Z" fill="#AC2A9E"/>
<path d="M7.01172 22.8138L9.07871 24.8808H22.7725C22.7725 24.8808 27.4232 24.4856 27.4587 24.5464C27.2561 23.5129 25.3157 20.3922 23.041 18.2543C20.7663 16.1164 16.607 16.1822 14.0081 17.3525C10.7404 18.8166 7.57913 22.6517 7.01172 22.8138Z" fill="#AC2A9E"/>
<path d="M1.88448 25.8181C1.29681 25.8586 0.511557 25.8941 0.0505371 25.8333L0.323114 30.0353C0.323114 30.0353 1.11949 30.0433 1.39813 29.5417C1.67171 29.0503 1.92501 27.6014 1.88448 25.8181Z" fill="#746A6E"/>
<mask id="mask2_3895_70373" style="mask-type:luminance" maskUnits="userSpaceOnUse" x="1" y="33" width="5" height="12">
<path d="M1.38818 39.2791C1.38818 36.3103 2.42168 33.9089 3.69328 33.9089C4.96489 33.9089 5.99838 36.3154 5.99838 39.2791C5.99838 42.2428 4.96489 44.6492 3.69328 44.6492C2.42168 44.6492 1.38818 42.2428 1.38818 39.2791Z" fill="white"/>
</mask>
<g mask="url(#mask2_3895_70373)">
<path d="M5.98825 39.2791C5.98825 42.2478 4.95982 44.6492 3.68822 44.6492C2.41661 44.6492 1.38818 42.2428 1.38818 39.2791C1.38818 36.3154 2.41661 33.9089 3.68822 33.9089C4.95982 33.9089 5.98825 36.3154 5.98825 39.2791Z" fill="#746A6E"/>
<path opacity="0.7" d="M-3.10034 36.6043L4.92951 32.136L10.5884 43.6159L2.55855 48.0842L-3.10034 36.6043Z" fill="url(#paint6_linear_3895_70373)"/>
<path opacity="0.39" d="M4.88905 39.3603C4.88905 41.3766 4.22539 43.0079 3.40974 43.0079C2.59409 43.0079 1.93042 41.3766 1.93042 39.3603C1.93042 37.3439 2.59409 35.7126 3.40974 35.7126C4.22539 35.7126 4.88905 37.349 4.88905 39.3603Z" fill="#746A6E"/>
</g>
<mask id="mask3_3895_70373" style="mask-type:luminance" maskUnits="userSpaceOnUse" x="27" y="33" width="6" height="12">
<path d="M27.8589 39.2791C27.8589 36.3103 28.9582 33.9089 30.3109 33.9089C31.6636 33.9089 32.7629 36.3154 32.7629 39.2791C32.7629 42.2428 31.6636 44.6492 30.3109 44.6492C28.9582 44.6492 27.8589 42.2428 27.8589 39.2791Z" fill="white"/>
</mask>
<g mask="url(#mask3_3895_70373)">
<path d="M32.7629 39.2791C32.7629 42.2478 31.6636 44.6492 30.3109 44.6492C28.9582 44.6492 27.8589 42.2428 27.8589 39.2791C27.8589 36.3154 28.9582 33.9089 30.3109 33.9089C31.6636 33.9089 32.7629 36.3154 32.7629 39.2791Z" fill="#746A6E"/>
<path opacity="0.7" d="M29.1091 48.0789L37.6416 43.6125L31.634 32.1357L23.1015 36.602L29.1091 48.0789Z" fill="url(#paint7_linear_3895_70373)"/>
<path opacity="0.39" d="M31.6435 39.4311C31.6435 41.6703 30.919 43.484 30.0223 43.484C29.1256 43.484 28.4011 41.6703 28.4011 39.4311C28.4011 37.1919 29.1256 35.3782 30.0223 35.3782C30.919 35.3782 31.6435 37.1919 31.6435 39.4311Z" fill="#746A6E"/>
</g>
<path d="M70.346 30.2811C69.2522 30.125 67.1015 30.9993 66.4024 31.9417C66.0072 32.4787 65.8552 33.7908 65.8552 33.7908C65.8552 33.7908 69.4966 33.9235 71.8928 33.7969C71.9163 32.9766 71.721 31.1249 70.346 30.2811Z" fill="white"/>
<path d="M42.3958 29.6506C43.8858 29.6764 45.4603 29.8394 47.2424 30.22C50.1855 30.8482 51.4926 32.1959 51.5686 33.7815C48.3762 33.9744 45.4437 33.9361 43.47 33.7795C43.4439 32.9399 43.2783 31.1734 42.3958 29.6506ZM41.7952 29.6477C42.731 31.0772 42.9239 32.8727 42.9602 33.7346C42.6068 33.6997 42.2926 33.662 42.0237 33.6194C41.4361 33.5281 40.7828 32.9198 40.2053 32.3069C39.1771 31.2081 38.3592 29.8887 38.3508 29.8752L38.3557 29.8704C39.5011 29.7431 40.627 29.6556 41.7952 29.6477Z" fill="white"/>
<mask id="mask4_3895_70373" style="mask-type:luminance" maskUnits="userSpaceOnUse" x="7" y="16" width="50" height="9">
<path d="M24.0593 16.5266C24.0593 16.5266 31.8055 16.2784 37.4795 16.4C43.1536 16.5266 46.6695 17.094 46.6695 17.094L56.0115 24.5261H30.6149C30.6149 24.5261 28.1021 21.147 27.2307 20.0172C26.2834 18.7811 24.3886 16.8306 24.0542 16.5266H24.0593ZM7.01172 22.8137L9.07871 24.8807H22.7725C22.7725 24.8807 27.4232 24.4856 27.4587 24.5463C27.2561 23.5129 25.3157 20.3921 23.041 18.2542C20.7663 16.1163 16.607 16.1821 14.0081 17.3524C10.7404 18.8165 7.57913 22.6516 7.01172 22.8137Z" fill="white"/>
</mask>
<g mask="url(#mask4_3895_70373)">
<rect x="-1.7583" y="26.4971" width="10.8723" height="58.798" transform="rotate(-90 -1.7583 26.4971)" fill="url(#paint8_linear_3895_70373)"/>
</g>
<path d="M27.4606 24.5397H24.6438C24.1068 24.5397 22.8605 21.5659 22.8605 21.5659H19.9019C19.9019 21.5659 18.6455 22.5082 18.6455 23.4505C18.6455 24.3928 19.8107 25.6036 19.8107 25.6036H25.6571C27.5619 25.6036 27.4606 24.5397 27.4606 24.5397Z" fill="#CFCBCC"/>
<path d="M60.601 9.81744V7.36566C58.7015 7.2263 57.2769 6.98886 56.5491 6.87014L56.1104 6.79788L56.5439 4.61451L56.9827 4.7229C57.9944 4.97066 60.0384 5.35778 62.7224 5.35778C65.4065 5.35778 67.3163 4.97066 68.2454 4.84162L68.6428 4.78484L69.0816 6.79272L68.6325 6.86498C67.9099 6.9837 66.6091 7.21597 64.8438 7.3605V9.94132C64.8438 10.6794 64.9677 11.5466 65.2052 12.2744L67.3627 18.3341L65.3703 19L63.2231 12.9506C63.1405 12.7699 63.0992 12.5686 63.0682 12.4292C63.0579 12.3879 63.0528 12.3518 63.0424 12.3208H62.3817C62.3766 12.3518 62.3663 12.3879 62.3559 12.4292C62.3301 12.5686 62.2888 12.7699 62.2062 12.9506L59.9764 18.9742L57.8498 18.3341L60.1003 12.2641V12.2434L60.1158 12.2228C60.4616 11.5259 60.5907 10.6846 60.5907 9.81744H60.601Z" fill="#820076"/>
<path d="M62.7173 0C61.5404 0 60.4977 1.03233 60.4977 2.21951C60.4977 3.40668 61.5352 4.43901 62.7173 4.43901C63.8993 4.43901 64.9368 3.40668 64.9368 2.21951C64.9368 1.03233 63.8993 0 62.7173 0Z" fill="#820076"/>
<defs>
<linearGradient id="paint0_linear_3895_70373" x1="61.15" y1="47.1259" x2="71.9999" y2="47.1259" gradientUnits="userSpaceOnUse">
<stop offset="0.45" stop-color="#1D0C17"/>
<stop offset="1" stop-color="#1D0C17" stop-opacity="0"/>
</linearGradient>
<linearGradient id="paint1_linear_3895_70373" x1="8.07195" y1="47.126" x2="0" y2="47.126" gradientUnits="userSpaceOnUse">
<stop offset="0.45" stop-color="#1D0C17"/>
<stop offset="1" stop-color="#1D0C17" stop-opacity="0"/>
</linearGradient>
<linearGradient id="paint2_linear_3895_70373" x1="12.2148" y1="15.5238" x2="67.5472" y2="40.9711" gradientUnits="userSpaceOnUse">
<stop stop-color="#CFCBCC"/>
<stop offset="0.94" stop-color="#CFCBCC" stop-opacity="0"/>
</linearGradient>
<linearGradient id="paint3_linear_3895_70373" x1="53.6693" y1="40.3035" x2="53.6693" y2="43.2435" gradientUnits="userSpaceOnUse">
<stop stop-color="#746A6E" stop-opacity="0.9"/>
<stop offset="1" stop-color="#746A6E" stop-opacity="0"/>
</linearGradient>
<linearGradient id="paint4_linear_3895_70373" x1="19.5911" y1="32.4748" x2="19.5911" y2="43.5512" gradientUnits="userSpaceOnUse">
<stop stop-color="#746A6E" stop-opacity="0.6"/>
<stop offset="0.9" stop-color="#746A6E" stop-opacity="0"/>
</linearGradient>
<linearGradient id="paint5_linear_3895_70373" x1="31.2209" y1="19.125" x2="13.4709" y2="30.125" gradientUnits="userSpaceOnUse">
<stop offset="0.11" stop-color="#746A6E" stop-opacity="0.79"/>
<stop offset="0.93" stop-color="#746A6E" stop-opacity="0"/>
</linearGradient>
<linearGradient id="paint6_linear_3895_70373" x1="0.804123" y1="41.1195" x2="9.22259" y2="36.7128" gradientUnits="userSpaceOnUse">
<stop offset="0.09" stop-color="#CFCBCC"/>
<stop offset="0.79" stop-color="#CFCBCC" stop-opacity="0"/>
</linearGradient>
<linearGradient id="paint7_linear_3895_70373" x1="26.9612" y1="41.1593" x2="35.5008" y2="36.6892" gradientUnits="userSpaceOnUse">
<stop offset="0.09" stop-color="#CFCBCC"/>
<stop offset="0.22" stop-color="#CFCBCC" stop-opacity="0.88"/>
<stop offset="0.79" stop-color="#CFCBCC" stop-opacity="0"/>
</linearGradient>
<linearGradient id="paint8_linear_3895_70373" x1="-1.7583" y1="55.8961" x2="9.11402" y2="55.8961" gradientUnits="userSpaceOnUse">
<stop offset="0.115385" stop-color="#42003B"/>
<stop offset="0.913462" stop-color="#42003B" stop-opacity="0"/>
</linearGradient>
</defs>
</svg>
