<svg width="72" height="51" viewBox="0 0 72 51" fill="none" xmlns="http://www.w3.org/2000/svg">
<g clip-path="url(#clip0_3895_70365)">
<path d="M71.9039 45.6948H61.0491V48.562H71.9039V45.6948Z" fill="url(#paint0_linear_3895_70365)"/>
<path d="M61.3852 45.6948H7.08618V48.562H61.3852V45.6948Z" fill="#1D0C17"/>
<path d="M-0.0959473 48.5571H7.976V45.6899H-0.0959473V48.5571Z" fill="url(#paint1_linear_3895_70365)"/>
<path d="M55.3192 21.0112H58.5855C58.5855 21.0112 59.9782 22.2185 60.0733 22.6043C60.1685 22.99 60.0232 24.3927 60.0232 24.3927L55.9855 23.8617L55.3142 21.0112H55.3192Z" fill="#1D0C17"/>
<path d="M40.013 41.5321H8.05166C4.4748 41.5321 1.42896 38.1656 1.42896 34.5888L1.57924 27.8408H40.013V41.5271V41.5321Z" fill="#1D0C17"/>
<path d="M37.399 30.0649H32.2692C30.4156 30.0649 28.9177 33.732 28.9177 38.2506C28.9177 42.7693 30.4206 46.4363 32.2692 46.4363H37.399C39.2526 46.4363 40.7504 42.7693 40.7504 38.2506C40.7504 33.732 39.2475 30.0649 37.399 30.0649Z" fill="#1D0C17"/>
<path d="M65.9941 30.0649H60.5286C58.5549 30.0649 56.9568 33.732 56.9568 38.2506C56.9568 42.7693 58.5549 46.4363 60.5286 46.4363H65.9941C67.9679 46.4363 69.566 42.7693 69.566 38.2506C69.566 33.732 67.9679 30.0649 65.9941 30.0649Z" fill="#1D0C17"/>
<path d="M10.5076 30.0649H5.3778C3.52424 30.0649 2.02637 33.732 2.02637 38.2506C2.02637 42.7693 3.52925 46.4363 5.3778 46.4363H10.5076C12.3612 46.4363 13.8591 42.7693 13.8591 38.2506C13.8591 33.732 12.3562 30.0649 10.5076 30.0649Z" fill="#1D0C17"/>
<path d="M34.8594 30.0649H29.3939C27.4201 30.0649 25.822 33.732 25.822 38.2506C25.822 42.7693 27.4201 46.4363 29.3939 46.4363H34.8594C36.8331 46.4363 38.4312 42.7693 38.4312 38.2506C38.4312 33.732 36.8331 30.0649 34.8594 30.0649Z" fill="#1D0C17"/>
<path d="M8.44336 13.7388V13.7437C8.44302 13.7441 8.44187 13.7449 8.44043 13.7466H23.0674L26.5312 15.7065L31.2656 22.4087L48.3682 24.5386L48.4482 41.6255L48.4434 41.6157L33.7637 41.9556C33.7637 41.9556 33.8576 37.9713 33.5459 34.8228C33.2341 31.6746 31.9404 29.6483 28.9014 29.7104C25.862 29.7728 24.8177 32.2671 24.5371 34.2622C24.2566 36.2573 24.6303 39.1876 24.7861 40.6343C24.756 40.6343 12.3607 40.6489 11.1172 40.6489C9.87481 40.6489 8.91716 40.3807 8.87207 38.938C8.83199 37.6956 8.75781 35.6694 8.37207 33.896C7.98635 32.1327 7.21964 29.7683 4.42969 29.7681C1.75456 29.8432 1.13263 31.6218 1.71875 36.5161C0.987515 35.9401 0.813808 35.6804 0.564453 35.0103C0.316475 34.3438 0.145477 31.9204 0.143555 31.8931C0.143555 31.4172 0.742188 31.0356 0.742188 31.0356L0.03125 22.9146C-0.0137265 22.3837 0.115779 21.8477 0.40625 21.397C1.16369 20.2248 2.70381 17.8431 3.6709 16.397C3.92145 15.9581 4.03481 15.5241 3.53418 15.2212C2.70093 14.717 2.74782 13.7388 3.14355 13.7388H8.44336Z" fill="#473A40"/>
<mask id="mask0_3895_70365" style="mask-type:alpha" maskUnits="userSpaceOnUse" x="0" y="13" width="49" height="29">
<path d="M8.44336 13.7388V13.7437C8.44302 13.7441 8.44187 13.7449 8.44043 13.7466H23.0674L26.5312 15.7065L31.2656 22.4087L48.3682 24.5386L48.4482 41.6255L48.4434 41.6157L33.7637 41.9556C33.7637 41.9556 33.8576 37.9713 33.5459 34.8228C33.2341 31.6746 31.9404 29.6483 28.9014 29.7104C25.862 29.7728 24.8177 32.2671 24.5371 34.2622C24.2566 36.2573 24.6303 39.1876 24.7861 40.6343C24.756 40.6343 12.3607 40.6489 11.1172 40.6489C9.87481 40.6489 8.91716 40.3807 8.87207 38.938C8.83199 37.6956 8.75781 35.6694 8.37207 33.896C7.98635 32.1327 7.21964 29.7683 4.42969 29.7681C1.75456 29.8432 1.13263 31.6218 1.71875 36.5161C0.987515 35.9401 0.813808 35.6804 0.564453 35.0103C0.316475 34.3438 0.145477 31.9204 0.143555 31.8931C0.143555 31.4172 0.742188 31.0356 0.742188 31.0356L0.03125 22.9146C-0.0137265 22.3837 0.115779 21.8477 0.40625 21.397C1.16369 20.2248 2.70381 17.8431 3.6709 16.397C3.92145 15.9581 4.03481 15.5241 3.53418 15.2212C2.70093 14.717 2.74782 13.7388 3.14355 13.7388H8.44336Z" fill="#B9B2B4"/>
</mask>
<g mask="url(#mask0_3895_70365)">
<path d="M40.6135 27.1868H0.0571289V41.0339H40.6135V27.1868Z" fill="url(#paint2_linear_3895_70365)"/>
<path d="M23.8658 51.2826L-1.41309 15.2674L21.6876 -2.01514L48.4855 34.0001L23.8658 51.2826Z" fill="url(#paint3_linear_3895_70365)"/>
</g>
<path d="M6.54503 23.8727H27.5904C27.5904 23.8727 24.9553 18.6126 22.8914 16.4936C21.2683 14.8304 17.6413 14.6951 14.9862 14.6901C12.3311 14.6851 9.17507 14.7953 7.79743 14.8855C6.12923 14.9957 3.53926 19.1386 3.31884 19.6747C3.17857 20.0103 3.97009 21.5833 4.57625 22.7055C4.967 23.4269 5.72345 23.8777 6.54503 23.8777V23.8727Z" fill="#AC2A9E"/>
<path d="M67.7424 25.6514C64.2056 24.2637 58.0087 23.0564 47.3733 21.819C35.3052 20.4113 48.0731 15.7783 47.1997 15.0125C46.3262 14.2467 42.5356 13.7422 36.2477 13.7422C29.9598 13.7422 19.0347 13.7422 19.0347 13.7422C20.2771 13.9476 23.0817 14.3146 24.805 16.5589C26.0624 18.1971 27.395 20.4214 28.3067 22.0194C29.0532 23.3269 30.4341 24.2754 31.6782 24.7797C32.9223 25.2841 34.4083 25.7454 36.0397 26.4687C37.671 27.1919 38.5448 28.7388 38.3833 31.5627C38.2218 34.3867 36.8502 40.9019 36.6815 41.7581L68.7694 41.5419C69.3855 41.5419 70.259 40.511 70.4393 39.9199C71.2359 37.2999 72.0448 32.9059 71.998 30.1783C71.9512 27.4506 69.7125 26.425 67.7424 25.6514Z" fill="#5C4D53"/>
<mask id="mask1_3895_70365" style="mask-type:alpha" maskUnits="userSpaceOnUse" x="19" y="13" width="53" height="29">
<path d="M67.7424 25.6514C64.2056 24.2637 58.0087 23.0564 47.3733 21.819C35.3052 20.4113 48.0731 15.7783 47.1997 15.0125C46.3262 14.2467 42.5356 13.7422 36.2477 13.7422C29.9598 13.7422 19.0347 13.7422 19.0347 13.7422C20.2771 13.9476 23.0817 14.3146 24.805 16.5589C26.0624 18.1971 27.395 20.4214 28.3067 22.0194C29.0532 23.3269 30.4341 24.2754 31.6782 24.7797C32.9223 25.2841 34.4083 25.7454 36.0397 26.4687C37.671 27.1919 38.5448 28.7388 38.3833 31.5627C38.2218 34.3867 36.8502 40.9019 36.6815 41.7581L68.7694 41.5419C69.3855 41.5419 70.259 40.511 70.4393 39.9199C71.2359 37.2999 72.0448 32.9059 71.998 30.1783C71.9512 27.4506 69.7125 26.425 67.7424 25.6514Z" fill="#E7E5E5"/>
</mask>
<g mask="url(#mask1_3895_70365)">
<rect x="23.03" y="-2.31982" width="55.7164" height="33.033" transform="rotate(28.275 23.03 -2.31982)" fill="url(#paint4_linear_3895_70365)"/>
<rect x="73.5159" y="35" width="6.625" height="39.2661" transform="rotate(90 73.5159 35)" fill="url(#paint5_linear_3895_70365)"/>
</g>
<path d="M26.5934 40.6956H8.43359V42.2736H26.5934V40.6956Z" fill="#1D0C17"/>
<path d="M47.1129 14.9359C40.9711 14.49 24.8953 14.7255 24.8953 14.7255C27.2848 16.6441 28.7827 19.7601 29.8949 21.5636C30.7315 22.9162 32.2894 23.6025 34.8794 23.6025C37.4694 23.6025 59.4716 23.5474 59.4716 23.5474C57.7633 22.0896 47.4736 15.1813 47.1129 14.9359Z" fill="#AC2A9E"/>
<mask id="mask2_3895_70365" style="mask-type:luminance" maskUnits="userSpaceOnUse" x="3" y="14" width="57" height="10">
<path d="M4.57625 22.7008C3.97009 21.5786 3.17857 20.0056 3.31884 19.6699C3.53926 19.1339 6.12923 14.991 7.79743 14.8808C9.17507 14.7906 12.3311 14.6804 14.9862 14.6854C17.6413 14.6904 21.2683 14.8256 22.8914 16.4888C24.9553 18.6079 27.5904 23.868 27.5904 23.868H6.54503C5.72345 23.868 4.967 23.4221 4.57625 22.6957V22.7008ZM47.1128 14.9359C40.9711 14.49 24.8952 14.7255 24.8952 14.7255C27.2848 16.6441 28.7827 19.7601 29.8948 21.5636C30.7314 22.9162 32.2894 23.6025 34.8794 23.6025C37.4693 23.6025 59.4715 23.5474 59.4715 23.5474C57.7633 22.0896 47.4735 15.1813 47.1128 14.9359Z" fill="white"/>
</mask>
<g mask="url(#mask2_3895_70365)">
<rect x="-3.23853" y="28.2114" width="12.1546" height="64.3416" transform="rotate(-90 -3.23853 28.2114)" fill="url(#paint6_linear_3895_70365)"/>
</g>
<path d="M0.107567 22.0024C0.0224034 22.293 -0.0176734 22.5986 0.00737465 22.9042L0.506139 28.4599L1.74571 28.4598C1.56536 24.0564 1.5854 22.9843 0.102557 22.0024H0.107567Z" fill="#1D0C17"/>
<path d="M68.8096 42.2734H31.5181V39.7185H70.5079L70.3776 40.0992C70.1923 40.6453 69.8917 41.1412 69.4909 41.557L68.8096 42.2684V42.2734Z" fill="#1D0C17"/>
<path d="M27.5956 23.8626H24.0998C23.5137 23.8626 23.6311 21.0112 23.6311 21.0112H19.8336C19.8336 21.0112 19.0464 22.0726 19.0464 23.2267C19.0464 24.3808 20.0634 25.4088 20.0634 25.4088C20.0634 25.4088 24.1783 25.4088 25.8772 25.4088C27.5762 25.4088 27.5956 23.8626 27.5956 23.8626Z" fill="#1D0C17"/>
<path d="M70.0028 26.7493C68.2144 27.2402 67.4061 28.5107 67.8519 30.0536C68.1709 30.1197 70.6731 30.1004 71.9512 30.0848C72.0135 29.3055 71.8013 27.8915 70.0028 26.7493Z" fill="#91888B"/>
<path d="M44.5669 26.158C45.455 26.2344 46.3747 26.3533 47.5083 26.5281V26.533C50.6391 27.0139 51.2461 28.1543 50.6802 30.1228C48.9334 30.1879 47.2049 30.178 45.8491 30.1287C45.8358 30.0431 45.818 29.9292 45.7935 29.7937C45.7365 29.479 45.647 29.0434 45.519 28.5603C45.3177 27.8003 45.012 26.8956 44.5669 26.158ZM39.0972 26.0925C41.1429 26.0326 42.5194 26.0253 43.856 26.1072C44.3762 26.8017 44.7398 27.8165 44.9751 28.7048C45.0983 29.1701 45.1838 29.5906 45.2388 29.8943C45.2527 29.9712 45.2638 30.0407 45.2739 30.1013C44.2165 30.0499 43.4685 29.9763 43.2505 29.8972C42.7642 29.7215 40.3795 28.1211 39.0972 26.0925Z" fill="#91888B"/>
<mask id="mask3_3895_70365" style="mask-type:luminance" maskUnits="userSpaceOnUse" x="26" y="32" width="6" height="13">
<path d="M26.5085 38.4886C26.5085 34.9586 27.6267 32.1033 29.0024 32.1033C30.3781 32.1033 31.4963 34.9646 31.4963 38.4886C31.4963 42.0125 30.3781 44.8738 29.0024 44.8738C27.6267 44.8738 26.5085 42.0125 26.5085 38.4886Z" fill="white"/>
</mask>
<g mask="url(#mask3_3895_70365)">
<path d="M31.4963 38.4886C31.4963 42.0185 30.3781 44.8738 29.0024 44.8738C27.6267 44.8738 26.5085 42.0125 26.5085 38.4886C26.5085 34.9646 27.6267 32.1033 29.0024 32.1033C30.3781 32.1033 31.4963 34.9646 31.4963 38.4886Z" fill="#473A40"/>
<path opacity="0.7" d="M27.7799 48.9518L36.458 43.6411L30.3479 29.9947L21.6698 35.3053L27.7799 48.9518Z" fill="url(#paint7_linear_3895_70365)" fill-opacity="0.3"/>
<path d="M30.3575 38.6692C30.3575 41.3317 29.6207 43.4883 28.7086 43.4883C27.7966 43.4883 27.0598 41.3317 27.0598 38.6692C27.0598 36.0066 27.7966 33.8501 28.7086 33.8501C29.6207 33.8501 30.3575 36.0066 30.3575 38.6692Z" fill="#473A40"/>
</g>
<mask id="mask4_3895_70365" style="mask-type:luminance" maskUnits="userSpaceOnUse" x="2" y="32" width="6" height="13">
<path d="M2.64844 38.4886C2.64844 34.9586 3.71151 32.1033 5.01953 32.1033C6.32755 32.1033 7.39062 34.9646 7.39062 38.4886C7.39062 42.0125 6.32755 44.8738 5.01953 44.8738C3.71151 44.8738 2.64844 42.0125 2.64844 38.4886Z" fill="white"/>
</mask>
<g mask="url(#mask4_3895_70365)">
<path d="M7.39062 38.4886C7.39062 42.0185 6.32755 44.8738 5.01953 44.8738C3.71151 44.8738 2.64844 42.0125 2.64844 38.4886C2.64844 34.9646 3.71151 32.1033 5.01953 32.1033C6.32755 32.1033 7.39062 34.9646 7.39062 38.4886Z" fill="#473A40"/>
<path opacity="0.7" d="M3.85752 48.9518L12.1084 43.6411L6.29905 29.9947L-1.95182 35.3053L3.85752 48.9518Z" fill="url(#paint8_linear_3895_70365)" fill-opacity="0.3"/>
<path d="M6.30794 38.6692C6.30794 41.3317 5.60739 43.4883 4.74027 43.4883C3.87316 43.4883 3.17261 41.3317 3.17261 38.6692C3.17261 36.0066 3.87316 33.8501 4.74027 33.8501C5.60739 33.8501 6.30794 36.0066 6.30794 38.6692Z" fill="#473A40"/>
</g>
</g>
<defs>
<linearGradient id="paint0_linear_3895_70365" x1="61.054" y1="47.1259" x2="71.9039" y2="47.1259" gradientUnits="userSpaceOnUse">
<stop offset="0.45" stop-color="#1D0C17"/>
<stop offset="1" stop-color="#1D0C17" stop-opacity="0"/>
</linearGradient>
<linearGradient id="paint1_linear_3895_70365" x1="7.976" y1="47.126" x2="-0.0959473" y2="47.126" gradientUnits="userSpaceOnUse">
<stop offset="0.45" stop-color="#1D0C17"/>
<stop offset="1" stop-color="#1D0C17" stop-opacity="0"/>
</linearGradient>
<linearGradient id="paint2_linear_3895_70365" x1="20.3353" y1="31.629" x2="20.3353" y2="41.6454" gradientUnits="userSpaceOnUse">
<stop stop-color="#1D0C17" stop-opacity="0.4"/>
<stop offset="0.9" stop-color="#1D0C17" stop-opacity="0"/>
</linearGradient>
<linearGradient id="paint3_linear_3895_70365" x1="31.4999" y1="14.5" x2="10.8517" y2="26.2193" gradientUnits="userSpaceOnUse">
<stop offset="0.11" stop-color="#1D0C17" stop-opacity="0.6"/>
<stop offset="0.93" stop-color="#1D0C17" stop-opacity="0"/>
</linearGradient>
<linearGradient id="paint4_linear_3895_70365" x1="23.03" y1="14.1967" x2="78.7464" y2="14.1967" gradientUnits="userSpaceOnUse">
<stop stop-color="#473A40"/>
<stop offset="1" stop-color="#473A40" stop-opacity="0"/>
</linearGradient>
<linearGradient id="paint5_linear_3895_70365" x1="73.5159" y1="54.633" x2="80.1409" y2="54.633" gradientUnits="userSpaceOnUse">
<stop stop-color="#31222A"/>
<stop offset="1" stop-color="#31222A" stop-opacity="0"/>
</linearGradient>
<linearGradient id="paint6_linear_3895_70365" x1="-3.23853" y1="60.3822" x2="8.91612" y2="60.3822" gradientUnits="userSpaceOnUse">
<stop offset="0.115385" stop-color="#42003B"/>
<stop offset="0.913462" stop-color="#42003B" stop-opacity="0"/>
</linearGradient>
<linearGradient id="paint7_linear_3895_70365" x1="25.5953" y1="40.7241" x2="34.8127" y2="36.597" gradientUnits="userSpaceOnUse">
<stop offset="0.09" stop-color="#CFCBCC"/>
<stop offset="0.22" stop-color="#CFCBCC" stop-opacity="0.88"/>
<stop offset="0.79" stop-color="#CFCBCC" stop-opacity="0"/>
</linearGradient>
<linearGradient id="paint8_linear_3895_70365" x1="1.78047" y1="40.7241" x2="10.6869" y2="36.9326" gradientUnits="userSpaceOnUse">
<stop offset="0.09" stop-color="#CFCBCC"/>
<stop offset="0.22" stop-color="#CFCBCC" stop-opacity="0.88"/>
<stop offset="0.79" stop-color="#CFCBCC" stop-opacity="0"/>
</linearGradient>
<clipPath id="clip0_3895_70365">
<rect width="72" height="51" fill="white"/>
</clipPath>
</defs>
</svg>
