<svg width="72" height="51" viewBox="0 0 72 51" fill="none" xmlns="http://www.w3.org/2000/svg">
<g clip-path="url(#clip0_3895_70367)">
<path d="M71.9039 45.6948H61.0491V48.562H71.9039V45.6948Z" fill="url(#paint0_linear_3895_70367)"/>
<path d="M61.3852 45.6948H7.08618V48.562H61.3852V45.6948Z" fill="#1D0C17"/>
<path d="M-0.0959473 48.5571H7.976V45.6899H-0.0959473V48.5571Z" fill="url(#paint1_linear_3895_70367)"/>
<path d="M55.2233 21.0112H58.4895C58.4895 21.0112 59.8822 22.2185 59.9774 22.6043C60.0726 22.99 59.9273 24.3927 59.9273 24.3927L55.8896 23.8617L55.2183 21.0112H55.2233Z" fill="#A1989B"/>
<path d="M39.917 41.5321H7.95571C4.37885 41.5321 1.33301 38.1656 1.33301 34.5888L1.4833 27.8408H39.917V41.5271V41.5321Z" fill="#1D0C17"/>
<path d="M37.303 30.0649H32.1732C30.3196 30.0649 28.8218 33.732 28.8218 38.2506C28.8218 42.7693 30.3247 46.4363 32.1732 46.4363H37.303C39.1566 46.4363 40.6545 42.7693 40.6545 38.2506C40.6545 33.732 39.1516 30.0649 37.303 30.0649Z" fill="#1D0C17"/>
<path d="M65.8982 30.0649H60.4327C58.4589 30.0649 56.8608 33.732 56.8608 38.2506C56.8608 42.7693 58.4589 46.4363 60.4327 46.4363H65.8982C67.872 46.4363 69.47 42.7693 69.47 38.2506C69.47 33.732 67.872 30.0649 65.8982 30.0649Z" fill="#1D0C17"/>
<path d="M10.4117 30.0649H5.28185C3.42829 30.0649 1.93042 33.732 1.93042 38.2506C1.93042 42.7693 3.4333 46.4363 5.28185 46.4363H10.4117C12.2652 46.4363 13.7631 42.7693 13.7631 38.2506C13.7631 33.732 12.2602 30.0649 10.4117 30.0649Z" fill="#1D0C17"/>
<path d="M34.7634 30.0649H29.2979C27.3241 30.0649 25.7261 33.732 25.7261 38.2506C25.7261 42.7693 27.3241 46.4363 29.2979 46.4363H34.7634C36.7372 46.4363 38.3353 42.7693 38.3353 38.2506C38.3353 33.732 36.7372 30.0649 34.7634 30.0649Z" fill="#1D0C17"/>
<path d="M8.34741 13.7388V13.7437C8.34707 13.7441 8.34592 13.7449 8.34448 13.7466H22.9714L26.4353 15.7065L31.1697 22.4087L48.2722 24.5386L48.3523 41.6255L48.3474 41.6157L33.6677 41.9556C33.6677 41.9556 33.7617 37.9713 33.45 34.8228C33.1382 31.6746 31.8445 29.6483 28.8054 29.7104C25.766 29.7728 24.7217 32.2671 24.4412 34.2622C24.1607 36.2573 24.5343 39.1876 24.6902 40.6343C24.6601 40.6343 12.2647 40.6489 11.0212 40.6489C9.77886 40.6489 8.82121 40.3807 8.77612 38.938C8.73605 37.6956 8.66186 35.6694 8.27612 33.896C7.8904 32.1327 7.12369 29.7683 4.33374 29.7681C1.65862 29.8432 1.03669 31.6218 1.6228 36.5161C0.891568 35.9401 0.717861 35.6804 0.468506 35.0103C0.220528 34.3438 0.0495294 31.9204 0.0476074 31.8931C0.0476074 31.4172 0.64624 31.0356 0.64624 31.0356L-0.0646973 22.9146C-0.109674 22.3837 0.0198317 21.8477 0.310303 21.397C1.06774 20.2248 2.60787 17.8431 3.57495 16.397C3.8255 15.9581 3.93886 15.5241 3.43823 15.2212C2.60499 14.717 2.65187 13.7388 3.04761 13.7388H8.34741Z" fill="#B9B2B4"/>
<mask id="mask0_3895_70367" style="mask-type:alpha" maskUnits="userSpaceOnUse" x="-1" y="13" width="50" height="29">
<path d="M8.34741 13.7388V13.7437C8.34707 13.7441 8.34592 13.7449 8.34448 13.7466H22.9714L26.4353 15.7065L31.1697 22.4087L48.2722 24.5386L48.3523 41.6255L48.3474 41.6157L33.6677 41.9556C33.6677 41.9556 33.7617 37.9713 33.45 34.8228C33.1382 31.6746 31.8445 29.6483 28.8054 29.7104C25.766 29.7728 24.7217 32.2671 24.4412 34.2622C24.1607 36.2573 24.5343 39.1876 24.6902 40.6343C24.6601 40.6343 12.2647 40.6489 11.0212 40.6489C9.77886 40.6489 8.82121 40.3807 8.77612 38.938C8.73605 37.6956 8.66186 35.6694 8.27612 33.896C7.8904 32.1327 7.12369 29.7683 4.33374 29.7681C1.65862 29.8432 1.03669 31.6218 1.6228 36.5161C0.891568 35.9401 0.717861 35.6804 0.468506 35.0103C0.220528 34.3438 0.0495294 31.9204 0.0476074 31.8931C0.0476074 31.4172 0.64624 31.0356 0.64624 31.0356L-0.0646973 22.9146C-0.109674 22.3837 0.0198317 21.8477 0.310303 21.397C1.06774 20.2248 2.60787 17.8431 3.57495 16.397C3.8255 15.9581 3.93886 15.5241 3.43823 15.2212C2.60499 14.717 2.65187 13.7388 3.04761 13.7388H8.34741Z" fill="#B9B2B4"/>
</mask>
<g mask="url(#mask0_3895_70367)">
<path d="M40.5176 27.1868H-0.0388184V41.0339H40.5176V27.1868Z" fill="url(#paint2_linear_3895_70367)"/>
<path d="M23.7698 51.2826L-1.50903 15.2674L21.5916 -2.01514L48.3895 34.0001L23.7698 51.2826Z" fill="url(#paint3_linear_3895_70367)"/>
</g>
<path d="M6.44908 23.8727H27.4944C27.4944 23.8727 24.8594 18.6126 22.7954 16.4936C21.1723 14.8304 17.5454 14.6951 14.8903 14.6901C12.2352 14.6851 9.07912 14.7953 7.70148 14.8855C6.03328 14.9957 3.44331 19.1386 3.22289 19.6747C3.08262 20.0103 3.87414 21.5833 4.4803 22.7055C4.87105 23.4269 5.6275 23.8777 6.44908 23.8777V23.8727Z" fill="#AC2A9E"/>
<path d="M67.6464 25.6514C64.1097 24.2637 57.9128 23.0564 47.2774 21.819C35.2092 20.4113 47.9772 15.7783 47.1037 15.0125C46.2303 14.2467 42.4396 13.7422 36.1517 13.7422C29.8639 13.7422 18.9387 13.7422 18.9387 13.7422C20.1811 13.9476 22.9858 14.3146 24.7091 16.5589C25.9665 18.1971 27.299 20.4214 28.2108 22.0194C28.9572 23.3269 30.3381 24.2754 31.5823 24.7797C32.8264 25.2841 34.3124 25.7454 35.9437 26.4687C37.5751 27.1919 38.4488 28.7388 38.2873 31.5627C38.1259 34.3867 36.7542 40.9019 36.5856 41.7581L68.6734 41.5419C69.2896 41.5419 70.163 40.511 70.3434 39.9199C71.1399 37.2999 71.9488 32.9059 71.9021 30.1783C71.8553 27.4506 69.6165 26.425 67.6464 25.6514Z" fill="#E7E5E5"/>
<mask id="mask1_3895_70367" style="mask-type:alpha" maskUnits="userSpaceOnUse" x="18" y="13" width="54" height="29">
<path d="M67.6464 25.6514C64.1097 24.2637 57.9128 23.0564 47.2774 21.819C35.2092 20.4113 47.9772 15.7783 47.1037 15.0125C46.2303 14.2467 42.4396 13.7422 36.1517 13.7422C29.8639 13.7422 18.9387 13.7422 18.9387 13.7422C20.1811 13.9476 22.9858 14.3146 24.7091 16.5589C25.9665 18.1971 27.299 20.4214 28.2108 22.0194C28.9572 23.3269 30.3381 24.2754 31.5823 24.7797C32.8264 25.2841 34.3124 25.7454 35.9437 26.4687C37.5751 27.1919 38.4488 28.7388 38.2873 31.5627C38.1259 34.3867 36.7542 40.9019 36.5856 41.7581L68.6734 41.5419C69.2896 41.5419 70.163 40.511 70.3434 39.9199C71.1399 37.2999 71.9488 32.9059 71.9021 30.1783C71.8553 27.4506 69.6165 26.425 67.6464 25.6514Z" fill="#E7E5E5"/>
</mask>
<g mask="url(#mask1_3895_70367)">
<path d="M76.4226 21.3701L22.3278 -3.50928L8.99609 28.3847L63.091 53.2641L76.4226 21.3701Z" fill="url(#paint4_linear_3895_70367)"/>
<path opacity="0.39" d="M73.4762 34.8855H36.2554V39.8732H73.4762V34.8855Z" fill="url(#paint5_linear_3895_70367)"/>
</g>
<path d="M26.4975 40.6956H8.33765V42.2736H26.4975V40.6956Z" fill="#1D0C17"/>
<path d="M47.0169 14.9359C40.8752 14.49 24.7993 14.7255 24.7993 14.7255C27.1889 16.6441 28.6868 19.7601 29.7989 21.5636C30.6355 22.9162 32.1935 23.6025 34.7835 23.6025C37.3734 23.6025 59.3756 23.5474 59.3756 23.5474C57.6674 22.0896 47.3776 15.1813 47.0169 14.9359Z" fill="#AC2A9E"/>
<mask id="mask2_3895_70367" style="mask-type:luminance" maskUnits="userSpaceOnUse" x="3" y="14" width="57" height="10">
<path d="M4.4803 22.7008C3.87414 21.5786 3.08262 20.0056 3.22289 19.6699C3.44331 19.1339 6.03328 14.991 7.70148 14.8808C9.07912 14.7906 12.2352 14.6804 14.8903 14.6854C17.5454 14.6904 21.1723 14.8256 22.7954 16.4888C24.8594 18.6079 27.4944 23.868 27.4944 23.868H6.44908C5.6275 23.868 4.87105 23.4221 4.4803 22.6957V22.7008ZM47.0169 14.9359C40.8751 14.49 24.7993 14.7255 24.7993 14.7255C27.1889 16.6441 28.6867 19.7601 29.7989 21.5636C30.6355 22.9162 32.1935 23.6025 34.7834 23.6025C37.3734 23.6025 59.3756 23.5474 59.3756 23.5474C57.6673 22.0896 47.3776 15.1813 47.0169 14.9359Z" fill="white"/>
</mask>
<g mask="url(#mask2_3895_70367)">
<rect x="-3.33447" y="28.2114" width="12.1546" height="64.3416" transform="rotate(-90 -3.33447 28.2114)" fill="url(#paint6_linear_3895_70367)"/>
</g>
<path d="M0.0116195 22.0024C-0.0735439 22.293 -0.113621 22.5986 -0.0885726 22.9042L0.410192 28.4599L1.64976 28.4598C1.46942 24.0564 1.48945 22.9843 0.00660976 22.0024H0.0116195Z" fill="#5C4D53"/>
<path d="M68.7134 42.2734H31.4219V39.7185H70.4117L70.2814 40.0992C70.0961 40.6453 69.7955 41.1412 69.3947 41.557L68.7134 42.2684V42.2734Z" fill="#1D0C17"/>
<path d="M27.4997 23.8626H24.0038C23.4177 23.8626 23.5351 21.0112 23.5351 21.0112H19.7377C19.7377 21.0112 18.9504 22.0726 18.9504 23.2267C18.9504 24.3808 19.9675 25.4088 19.9675 25.4088C19.9675 25.4088 24.0823 25.4088 25.7813 25.4088C27.4802 25.4088 27.4997 23.8626 27.4997 23.8626Z" fill="#CFCBCC"/>
<path d="M69.9071 26.7493C68.1187 27.2402 67.3103 28.5107 67.7562 30.0536C68.0752 30.1197 70.5774 30.1004 71.8555 30.0848C71.9178 29.3055 71.7056 27.8915 69.9071 26.7493Z" fill="white"/>
<path d="M44.4709 26.158C45.3591 26.2344 46.2788 26.3533 47.4124 26.5281V26.533C50.5432 27.0139 51.1501 28.1543 50.5842 30.1228C48.8374 30.1879 47.109 30.178 45.7532 30.1287C45.7399 30.0431 45.722 29.9292 45.6975 29.7937C45.6406 29.479 45.5511 29.0434 45.4231 28.5603C45.2218 27.8003 44.9161 26.8956 44.4709 26.158ZM39.0012 26.0925C41.047 26.0326 42.4234 26.0253 43.76 26.1072C44.2803 26.8017 44.6438 27.8165 44.8792 28.7048C45.0024 29.1701 45.0879 29.5906 45.1428 29.8943C45.1567 29.9712 45.1678 30.0407 45.178 30.1013C44.1206 30.0499 43.3725 29.9763 43.1545 29.8972C42.6682 29.7215 40.2835 28.1211 39.0012 26.0925Z" fill="white"/>
<mask id="mask3_3895_70367" style="mask-type:luminance" maskUnits="userSpaceOnUse" x="26" y="32" width="6" height="13">
<path d="M26.4126 38.4886C26.4126 34.9586 27.5307 32.1033 28.9065 32.1033C30.2822 32.1033 31.4003 34.9646 31.4003 38.4886C31.4003 42.0125 30.2822 44.8738 28.9065 44.8738C27.5307 44.8738 26.4126 42.0125 26.4126 38.4886Z" fill="white"/>
</mask>
<g mask="url(#mask3_3895_70367)">
<path d="M31.4003 38.4886C31.4003 42.0185 30.2822 44.8738 28.9065 44.8738C27.5307 44.8738 26.4126 42.0125 26.4126 38.4886C26.4126 34.9646 27.5307 32.1033 28.9065 32.1033C30.2822 32.1033 31.4003 34.9646 31.4003 38.4886Z" fill="#746A6E"/>
<path opacity="0.7" d="M27.684 48.9518L36.3621 43.6411L30.2519 29.9947L21.5739 35.3053L27.684 48.9518Z" fill="url(#paint7_linear_3895_70367)"/>
<path opacity="0.39" d="M30.2615 38.6692C30.2615 41.3317 29.5247 43.4883 28.6127 43.4883C27.7007 43.4883 26.9639 41.3317 26.9639 38.6692C26.9639 36.0066 27.7007 33.8501 28.6127 33.8501C29.5247 33.8501 30.2615 36.0066 30.2615 38.6692Z" fill="#746A6E"/>
</g>
<mask id="mask4_3895_70367" style="mask-type:luminance" maskUnits="userSpaceOnUse" x="2" y="32" width="6" height="13">
<path d="M2.55713 38.4886C2.55713 34.9586 3.61584 32.1033 4.9185 32.1033C6.22116 32.1033 7.27987 34.9646 7.27987 38.4886C7.27987 42.0125 6.22116 44.8738 4.9185 44.8738C3.61584 44.8738 2.55713 42.0125 2.55713 38.4886Z" fill="white"/>
</mask>
<g mask="url(#mask4_3895_70367)">
<path d="M7.27987 38.4886C7.27987 42.0185 6.22116 44.8738 4.9185 44.8738C3.61584 44.8738 2.55713 42.0125 2.55713 38.4886C2.55713 34.9646 3.61584 32.1033 4.9185 32.1033C6.22116 32.1033 7.27987 34.9646 7.27987 38.4886Z" fill="#746A6E"/>
<path opacity="0.7" d="M3.76122 48.9518L11.9783 43.6411L6.19274 29.9947L-2.02431 35.3053L3.76122 48.9518Z" fill="url(#paint8_linear_3895_70367)"/>
<path opacity="0.39" d="M6.20158 38.6692C6.20158 41.3317 5.5039 43.4883 4.64034 43.4883C3.77678 43.4883 3.0791 41.3317 3.0791 38.6692C3.0791 36.0066 3.77678 33.8501 4.64034 33.8501C5.5039 33.8501 6.20158 36.0066 6.20158 38.6692Z" fill="#746A6E"/>
</g>
</g>
<defs>
<linearGradient id="paint0_linear_3895_70367" x1="61.054" y1="47.1259" x2="71.9039" y2="47.1259" gradientUnits="userSpaceOnUse">
<stop offset="0.45" stop-color="#1D0C17"/>
<stop offset="1" stop-color="#1D0C17" stop-opacity="0"/>
</linearGradient>
<linearGradient id="paint1_linear_3895_70367" x1="7.976" y1="47.126" x2="-0.0959473" y2="47.126" gradientUnits="userSpaceOnUse">
<stop offset="0.45" stop-color="#1D0C17"/>
<stop offset="1" stop-color="#1D0C17" stop-opacity="0"/>
</linearGradient>
<linearGradient id="paint2_linear_3895_70367" x1="20.2394" y1="31.629" x2="20.2394" y2="41.6454" gradientUnits="userSpaceOnUse">
<stop stop-color="#746A6E" stop-opacity="0.6"/>
<stop offset="0.9" stop-color="#746A6E" stop-opacity="0"/>
</linearGradient>
<linearGradient id="paint3_linear_3895_70367" x1="35.3203" y1="13.9994" x2="10.7558" y2="26.2193" gradientUnits="userSpaceOnUse">
<stop offset="0.11" stop-color="#746A6E" stop-opacity="0.79"/>
<stop offset="0.93" stop-color="#746A6E" stop-opacity="0"/>
</linearGradient>
<linearGradient id="paint4_linear_3895_70367" x1="15.1111" y1="12.1875" x2="70.3077" y2="37.5723" gradientUnits="userSpaceOnUse">
<stop stop-color="#CFCBCC"/>
<stop offset="0.94" stop-color="#CFCBCC" stop-opacity="0"/>
</linearGradient>
<linearGradient id="paint5_linear_3895_70367" x1="54.8635" y1="36.4858" x2="54.8635" y2="40.0955" gradientUnits="userSpaceOnUse">
<stop stop-color="#746A6E" stop-opacity="0.9"/>
<stop offset="1" stop-color="#746A6E" stop-opacity="0"/>
</linearGradient>
<linearGradient id="paint6_linear_3895_70367" x1="-3.33447" y1="60.3822" x2="8.82017" y2="60.3822" gradientUnits="userSpaceOnUse">
<stop offset="0.115385" stop-color="#42003B"/>
<stop offset="0.913462" stop-color="#42003B" stop-opacity="0"/>
</linearGradient>
<linearGradient id="paint7_linear_3895_70367" x1="25.4994" y1="40.7241" x2="34.7167" y2="36.597" gradientUnits="userSpaceOnUse">
<stop offset="0.09" stop-color="#CFCBCC"/>
<stop offset="0.22" stop-color="#CFCBCC" stop-opacity="0.88"/>
<stop offset="0.79" stop-color="#CFCBCC" stop-opacity="0"/>
</linearGradient>
<linearGradient id="paint8_linear_3895_70367" x1="1.69268" y1="40.7241" x2="10.5738" y2="36.9589" gradientUnits="userSpaceOnUse">
<stop offset="0.09" stop-color="#CFCBCC"/>
<stop offset="0.22" stop-color="#CFCBCC" stop-opacity="0.88"/>
<stop offset="0.79" stop-color="#CFCBCC" stop-opacity="0"/>
</linearGradient>
<clipPath id="clip0_3895_70367">
<rect width="72" height="51" fill="white"/>
</clipPath>
</defs>
</svg>
