<svg width="73" height="51" viewBox="0 0 73 51" fill="none" xmlns="http://www.w3.org/2000/svg">
<path d="M72.0353 45.6948H62.9084V48.562H72.0353V45.6948Z" fill="url(#paint0_linear_3895_70368)"/>
<path d="M64.5335 45.6948H7.18579V48.562H64.5335V45.6948Z" fill="#1D0C17"/>
<path d="M0 48.5571H8.07592V45.6899H0V48.5571Z" fill="url(#paint1_linear_3895_70368)"/>
<rect x="30.0334" y="45.25" width="1.4375" height="0.8125" fill="#1D0C17"/>
<path d="M29.2424 32.6743H24.0587C22.1883 32.6743 20.6699 35.6659 20.6699 39.3564C20.6699 43.0468 22.1883 46.0384 24.0587 46.0384H29.2424C31.1128 46.0384 32.6312 43.0468 32.6312 39.3564C32.6312 35.6659 31.1128 32.6743 29.2424 32.6743Z" fill="#1D0C17"/>
<path d="M37.2168 32.6743H32.0331C30.1627 32.6743 28.6443 35.6659 28.6443 39.3564C28.6443 43.0468 30.1627 46.0384 32.0331 46.0384H37.2168C39.0872 46.0384 40.6056 43.0468 40.6056 39.3564C40.6056 35.6659 39.0872 32.6743 37.2168 32.6743Z" fill="#1D0C17"/>
<path d="M8.88483 32.6743H4.01785C2.26312 32.6743 0.835205 35.6659 0.835205 39.3564C0.835205 43.0468 2.25809 46.0384 4.01785 46.0384H8.88483C10.6396 46.0384 12.0624 43.0468 12.0624 39.3564C12.0624 35.6659 10.6396 32.6743 8.88483 32.6743Z" fill="#1D0C17"/>
<path d="M67.4192 32.6743H62.2355C60.3651 32.6743 58.8467 35.6659 58.8467 39.3564C58.8467 43.0468 60.3651 46.0384 62.2355 46.0384H67.4192C69.2896 46.0384 70.808 43.0468 70.808 39.3564C70.808 35.6659 69.2896 32.6743 67.4192 32.6743Z" fill="#1D0C17"/>
<path d="M0.846088 39.4377C0.827405 39.0173 0.447647 30.3203 0.54921 30.0312C0.650772 29.7422 9.98588 30.8342 9.98588 30.8342L9.33226 38.2654C9.33226 38.2654 7.49708 37.7727 7.37138 37.7727C7.24569 37.7727 5.12392 34.3839 5.12392 34.3839L3.69601 33.7303L2.42898 34.5448L0.875368 39.3062C0.875368 39.3062 0.86477 39.8581 0.846088 39.4377Z" fill="#1D0C17"/>
<path d="M30.032 43.8215H8.75903V40.3523H28.9309L30.032 43.8215Z" fill="#1D0C17"/>
<path d="M68.7666 43.8215H36.8496V40.3523H67.6654L68.7666 43.8215Z" fill="#1D0C17"/>
<path d="M36.2362 33.3282V30.6735L30.9268 29.9395L26.7637 31.2065V41.6594L28.8854 41.2119L29.0463 38.6779L29.4988 35.9025L30.8061 33.9819L36.2362 33.3282Z" fill="#1D0C17"/>
<path d="M38.0866 42.4736H70.2952L70.846 40.375C71.027 39.7616 70.9398 40.7344 71.2679 39.8281C72.1116 37.1719 72.0671 32.7088 72.0218 32.1055C72.0017 31.8541 71.4666 31.0151 70.9739 30.4821C70.6019 30.0799 68.9571 29.2666 65.3773 27.8438C61.4907 26.3002 52.9085 24.6875 52.9085 24.6875L46.2468 20.0895C46.2468 20.0895 47.2273 19.7727 46.8351 19.3102C46.4429 18.8476 43.6223 17.5404 37.5034 17.2839C37.5034 17.2839 18.4075 17.1934 15.8785 17.5052C13.3495 17.8119 31.8571 28.7123 33.0939 29.743C33.3101 29.924 34.5118 31.543 34.6576 31.7743C35.6179 33.3379 36.9302 35.0826 37.3576 37.9586C37.7849 40.8395 38.0816 42.4736 38.0816 42.4736H38.0866Z" fill="#E7E5E5"/>
<mask id="mask0_3895_70368" style="mask-type:alpha" maskUnits="userSpaceOnUse" x="15" y="17" width="58" height="26">
<path d="M38.0866 42.4736H70.2952L70.846 40.375C71.027 39.7616 70.9398 40.7344 71.2679 39.8281C72.1116 37.1719 72.0671 32.7088 72.0218 32.1055C72.0017 31.8541 71.4666 31.0151 70.9739 30.4821C70.6019 30.0799 68.9571 29.2666 65.3773 27.8438C61.4907 26.3002 52.9085 24.6875 52.9085 24.6875L46.2468 20.0895C46.2468 20.0895 47.2273 19.7727 46.8351 19.3102C46.4429 18.8476 43.6223 17.5404 37.5034 17.2839C37.5034 17.2839 18.4075 17.1934 15.8785 17.5052C13.3495 17.8119 31.8571 28.7123 33.0939 29.743C33.3101 29.924 34.5118 31.543 34.6576 31.7743C35.6179 33.3379 36.9302 35.0826 37.3576 37.9586C37.7849 40.8395 38.0816 42.4736 38.0816 42.4736H38.0866Z" fill="#E7E5E5"/>
</mask>
<g mask="url(#mask0_3895_70368)">
<path opacity="0.39" d="M71.9708 36.5105H37.4763V41.125H71.9708V36.5105Z" fill="url(#paint2_linear_3895_70368)"/>
<path d="M71.2209 24.1181L22.8355 3.625L10.9109 29.896L59.2963 50.3891L71.2209 24.1181Z" fill="url(#paint3_linear_3895_70368)"/>
</g>
<path d="M30.6303 27.0935C29.5745 26.4701 28.7398 25.3489 27.7845 23.941C26.8293 22.5332 25.0343 19.8031 22.8723 18.5109C21.6053 17.7568 19.2321 17.2389 15.6473 17.5305C13.1484 17.7366 9.17136 19.1042 7.34624 20.3662C5.52112 21.6282 5.55632 21.588 3.54014 22.6439C1.60441 23.6545 0.101074 23.8807 0.101074 23.8807L0.608889 33.6096C1.53905 31.3974 2.98205 30.4723 4.31443 30.8896C5.88313 31.3823 7.59763 33.856 8.64846 38.3811C9.23672 40.9101 9.14622 41.6894 9.82498 41.6894H28.2672C27.4477 38.9191 27.5985 34.8867 28.4734 33.0817C29.3231 31.322 31.1934 29.9292 33.5515 31.4175C35.9096 32.9007 37.0208 37.5867 37.1314 42.4738H38.9515C39.3386 39.4068 39.5297 34.7208 37.966 31.9555C36.2615 28.9438 32.4705 27.9533 30.6404 27.0935H30.6303Z" fill="#B9B2B4"/>
<mask id="mask1_3895_70368" style="mask-type:alpha" maskUnits="userSpaceOnUse" x="0" y="17" width="40" height="26">
<path d="M30.6303 27.0935C29.5745 26.4701 28.7398 25.3489 27.7845 23.941C26.8293 22.5332 25.0343 19.8031 22.8723 18.5109C21.6053 17.7568 19.2321 17.2389 15.6473 17.5305C13.1484 17.7366 9.17136 19.1042 7.34624 20.3662C5.52112 21.6282 5.55632 21.588 3.54014 22.6439C1.60441 23.6545 0.101074 23.8807 0.101074 23.8807L0.608889 33.6096C1.53905 31.3974 2.98205 30.4723 4.31443 30.8896C5.88313 31.3823 7.59763 33.856 8.64846 38.3811C9.23672 40.9101 9.14622 41.6894 9.82498 41.6894H28.2672C27.4477 38.9191 27.5985 34.8867 28.4734 33.0817C29.3231 31.322 31.1934 29.9292 33.5515 31.4175C35.9096 32.9007 37.0208 37.5867 37.1314 42.4738H38.9515C39.3386 39.4068 39.5297 34.7208 37.966 31.9555C36.2615 28.9438 32.4705 27.9533 30.6404 27.0935H30.6303Z" fill="#B9B2B4"/>
</mask>
<g mask="url(#mask1_3895_70368)">
<path d="M38.3638 28.8118H-2.19263V42.6589H38.3638V28.8118Z" fill="url(#paint4_linear_3895_70368)"/>
<path d="M21.7143 52.425L2.59595 21.075L22.3515 6.29517L45.2688 37.0951L21.7143 52.425Z" fill="url(#paint5_linear_3895_70368)"/>
</g>
<path d="M8.44235 26.6311H25.6628C25.6628 26.6311 27.5131 26.7417 27.317 25.7411C27.1209 24.7406 25.0997 21.3317 23.0735 19.8133C20.7908 18.1038 14.7121 18.2194 12.1982 19.3457C8.7038 20.6529 6.31556 22.5786 4.90273 23.3328C4.90273 23.3328 4.34463 26.626 8.44738 26.626L8.44235 26.6311Z" fill="#AC2A9E"/>
<path d="M48.7858 19.3604C46.1814 17.9676 44.5172 17.8269 42.0183 17.4699C40.0675 17.1883 32.8626 17.1682 27.9353 17.1682C23.0079 17.1682 19.4784 17.2034 17.9348 17.3744C20.9415 17.3744 23.7269 17.6308 25.6979 19.7978C27.6688 21.9648 30.0771 25.062 30.7559 25.8262C31.4296 26.5904 32.1335 26.696 37.5687 26.696H61.7728C61.7728 26.696 51.4003 20.7531 48.7909 19.3604H48.7858Z" fill="#AC2A9E"/>
<mask id="mask2_3895_70368" style="mask-type:luminance" maskUnits="userSpaceOnUse" x="4" y="17" width="58" height="10">
<path d="M8.44235 26.6307H25.6628C25.6628 26.6307 27.5131 26.7413 27.317 25.7407C27.1209 24.7402 25.0997 21.3313 23.0735 19.8129C20.7908 18.1034 14.7121 18.219 12.1982 19.3453C8.7038 20.6525 6.59209 22.4626 4.90273 23.3324C4.90273 23.3324 4.34463 26.6256 8.44738 26.6256L8.44235 26.6307ZM61.768 26.696H37.5638C32.1287 26.696 31.4298 26.5904 30.751 25.8262C30.0773 25.062 27.6639 21.9648 25.693 19.7978C23.7221 17.6308 20.9366 17.3693 17.9299 17.3744C19.4735 17.2034 23.0031 17.1682 27.9304 17.1682C32.8577 17.1682 40.0627 17.1883 42.0135 17.4699C44.5123 17.8269 46.1765 17.9676 48.781 19.3604C51.3854 20.7531 61.763 26.696 61.763 26.696H61.768Z" fill="white"/>
</mask>
<g mask="url(#mask2_3895_70368)">
<rect x="3.84595" y="29.625" width="11.625" height="63" transform="rotate(-90 3.84595 29.625)" fill="url(#paint6_linear_3895_70368)"/>
</g>
<path d="M27.3621 25.907H24.8821C24.6207 25.907 24.0437 25.4579 24.0539 24.6967C24.0641 23.9354 24.4084 23.4282 24.4084 23.4282H20.8459C20.8459 23.4282 20.2053 24.7412 20.2053 25.6562C20.2053 26.5713 21.8465 27.3399 21.8465 27.3399H26.2053C27.2008 27.3399 27.3571 25.907 27.3571 25.907H27.3621Z" fill="#CFCBCC"/>
<path d="M70.265 42.7957H36.3621V39.0046H71.517C71.517 39.0046 70.8784 41.5186 70.265 42.7957Z" fill="#1D0C17"/>
<path d="M28.6241 39.8945H8.15063V42.2928H28.6241V39.8945Z" fill="#1D0C17"/>
<path d="M2.07203 25.7964C1.47371 25.8467 0.67428 25.8919 0.20166 25.8165L0.473165 31.136C0.473165 31.136 1.36813 31.0254 1.65472 30.3919C1.93628 29.7734 2.11225 28.0388 2.07203 25.7964Z" fill="#5C4D53"/>
<path d="M63.8948 30.3225C64.2294 30.8227 64.5271 31.4287 64.7629 31.9875C64.8113 32.1021 64.8542 32.215 64.8967 32.3225C61.4526 32.3307 57.2587 32.3403 53.4856 32.3372C53.4202 32.1657 53.3467 31.9793 53.2649 31.7854C53.0726 31.3298 52.8302 30.8198 52.55 30.3499C56.6811 30.3517 60.6928 30.3374 63.8948 30.3225ZM39.3079 30.261C43.0653 30.3241 47.5485 30.3451 51.9358 30.3489C52.2632 30.844 52.5547 31.4385 52.7864 31.9875C52.8367 32.1069 52.881 32.2245 52.925 32.3362C48.8578 32.3317 45.3609 32.3171 43.9543 32.2776C39.6605 32.1619 39.3079 30.2659 39.3079 30.2659V30.261ZM70.762 30.301C72.1037 31.2886 72.0334 32.3059 72.0334 32.3059C71.9942 32.3061 69.2421 32.3122 65.4553 32.3215C65.3914 32.1545 65.3208 31.9733 65.2415 31.7854C65.045 31.3199 64.7961 30.7978 64.5081 30.3196C68.2253 30.3018 70.7091 30.2868 70.762 30.301Z" fill="white"/>
<mask id="mask3_3895_70368" style="mask-type:luminance" maskUnits="userSpaceOnUse" x="29" y="33" width="6" height="12">
<path d="M29.2991 39.2543C29.2991 36.2286 30.3604 33.7812 31.6663 33.7812C32.9721 33.7812 34.0334 36.2338 34.0334 39.2543C34.0334 42.2748 32.9721 44.7273 31.6663 44.7273C30.3604 44.7273 29.2991 42.2748 29.2991 39.2543Z" fill="white"/>
</mask>
<g mask="url(#mask3_3895_70368)">
<path d="M34.0334 39.2543C34.0334 42.2799 32.9721 44.7273 31.6663 44.7273C30.3604 44.7273 29.2991 42.2748 29.2991 39.2543C29.2991 36.2338 30.3604 33.7812 31.6663 33.7812C32.9721 33.7812 34.0334 36.2338 34.0334 39.2543Z" fill="#746A6E"/>
<path opacity="0.7" d="M30.5061 48.2228L38.7434 43.6709L32.9436 31.9741L24.7063 36.526L30.5061 48.2228Z" fill="url(#paint7_linear_3895_70368)"/>
<path opacity="0.39" d="M32.9527 39.4091C32.9527 41.6913 32.2533 43.5397 31.3876 43.5397C30.5219 43.5397 29.8225 41.6913 29.8225 39.4091C29.8225 37.127 30.5219 35.2786 31.3876 35.2786C32.2533 35.2786 32.9527 37.127 32.9527 39.4091Z" fill="#746A6E"/>
</g>
<mask id="mask4_3895_70368" style="mask-type:luminance" maskUnits="userSpaceOnUse" x="1" y="33" width="6" height="12">
<path d="M1.73657 39.2543C1.73657 36.2286 2.79789 33.7812 4.10376 33.7812C5.40962 33.7812 6.47095 36.2338 6.47095 39.2543C6.47095 42.2748 5.40962 44.7273 4.10376 44.7273C2.79789 44.7273 1.73657 42.2748 1.73657 39.2543Z" fill="white"/>
</mask>
<g mask="url(#mask4_3895_70368)">
<path d="M6.47095 39.2543C6.47095 42.2799 5.40962 44.7273 4.10376 44.7273C2.79789 44.7273 1.73657 42.2748 1.73657 39.2543C1.73657 36.2338 2.79789 33.7812 4.10376 33.7812C5.40962 33.7812 6.47095 36.2338 6.47095 39.2543Z" fill="#746A6E"/>
<path opacity="0.7" d="M2.94363 48.2228L11.1809 43.6709L5.38113 31.9741L-2.85615 36.526L2.94363 48.2228Z" fill="url(#paint8_linear_3895_70368)"/>
<path opacity="0.39" d="M5.39018 39.4091C5.39018 41.6913 4.69078 43.5397 3.82509 43.5397C2.9594 43.5397 2.26001 41.6913 2.26001 39.4091C2.26001 37.127 2.9594 35.2786 3.82509 35.2786C4.69078 35.2786 5.39018 37.127 5.39018 39.4091Z" fill="#746A6E"/>
</g>
<path d="M67.0224 12.695L67.6733 11.5045L68.3242 12.695C68.9305 13.8243 69.8429 14.7311 70.9388 15.343L72.0959 15.9995L70.9221 16.6559C69.8095 17.2734 68.9139 18.1969 68.3075 19.3039L67.6566 20.4944L67.028 19.3039C66.4216 18.1746 65.5092 17.2678 64.4133 16.6559L63.2395 15.9995L64.4133 15.343C65.5092 14.7478 66.4216 13.8243 67.028 12.695H67.0224Z" fill="#820076"/>
<path d="M67.6121 5.97476C66.9223 4.72307 65.9098 3.67164 64.6748 2.99851C65.9098 2.30312 66.9445 1.2517 67.6121 0C68.3019 1.2517 69.3144 2.30312 70.5494 2.97626C69.3144 3.67164 68.3019 4.70081 67.6121 5.97476Z" fill="#820076"/>
<path d="M56.9087 4.33365L57.7988 2.67029L58.6889 4.33365C59.54 5.91357 60.7973 7.18752 62.3605 8.0498L63.9794 8.95658L62.3605 9.8578C60.8196 10.7201 59.5456 11.994 58.6889 13.5739L57.7988 15.2373L56.9087 13.5739C56.0575 11.994 54.8003 10.7201 53.2371 9.8578L51.5959 8.95658L53.2371 8.0498C54.8003 7.18752 56.0575 5.91357 56.9087 4.33365Z" fill="#820076"/>
<defs>
<linearGradient id="paint0_linear_3895_70368" x1="62.9126" y1="47.1259" x2="72.0353" y2="47.1259" gradientUnits="userSpaceOnUse">
<stop offset="0.45" stop-color="#1D0C17"/>
<stop offset="1" stop-color="#1D0C17" stop-opacity="0"/>
</linearGradient>
<linearGradient id="paint1_linear_3895_70368" x1="8.07592" y1="47.126" x2="0" y2="47.126" gradientUnits="userSpaceOnUse">
<stop offset="0.45" stop-color="#1D0C17"/>
<stop offset="1" stop-color="#1D0C17" stop-opacity="0"/>
</linearGradient>
<linearGradient id="paint2_linear_3895_70368" x1="54.7214" y1="37.9911" x2="54.7214" y2="41.3306" gradientUnits="userSpaceOnUse">
<stop stop-color="#746A6E" stop-opacity="0.9"/>
<stop offset="1" stop-color="#746A6E" stop-opacity="0"/>
</linearGradient>
<linearGradient id="paint3_linear_3895_70368" x1="16.3805" y1="16.5544" x2="64.2537" y2="40.4625" gradientUnits="userSpaceOnUse">
<stop stop-color="#CFCBCC"/>
<stop offset="0.94" stop-color="#CFCBCC" stop-opacity="0"/>
</linearGradient>
<linearGradient id="paint4_linear_3895_70368" x1="18.0856" y1="33.254" x2="18.0856" y2="43.2704" gradientUnits="userSpaceOnUse">
<stop stop-color="#746A6E" stop-opacity="0.6"/>
<stop offset="0.9" stop-color="#746A6E" stop-opacity="0"/>
</linearGradient>
<linearGradient id="paint5_linear_3895_70368" x1="34.0921" y1="19.9907" x2="13.0847" y2="30.4411" gradientUnits="userSpaceOnUse">
<stop offset="0.11" stop-color="#746A6E" stop-opacity="0.79"/>
<stop offset="0.93" stop-color="#746A6E" stop-opacity="0"/>
</linearGradient>
<linearGradient id="paint6_linear_3895_70368" x1="3.84595" y1="61.125" x2="15.4709" y2="61.125" gradientUnits="userSpaceOnUse">
<stop offset="0.115385" stop-color="#42003B"/>
<stop offset="0.913462" stop-color="#42003B" stop-opacity="0"/>
</linearGradient>
<linearGradient id="paint7_linear_3895_70368" x1="28.4325" y1="41.1706" x2="36.8629" y2="36.9904" gradientUnits="userSpaceOnUse">
<stop offset="0.09" stop-color="#CFCBCC"/>
<stop offset="0.22" stop-color="#CFCBCC" stop-opacity="0.88"/>
<stop offset="0.79" stop-color="#CFCBCC" stop-opacity="0"/>
</linearGradient>
<linearGradient id="paint8_linear_3895_70368" x1="0.86999" y1="41.1706" x2="9.30044" y2="36.9904" gradientUnits="userSpaceOnUse">
<stop offset="0.09" stop-color="#CFCBCC"/>
<stop offset="0.22" stop-color="#CFCBCC" stop-opacity="0.88"/>
<stop offset="0.79" stop-color="#CFCBCC" stop-opacity="0"/>
</linearGradient>
</defs>
</svg>
