<svg width="72" height="51" viewBox="0 0 72 51" fill="none" xmlns="http://www.w3.org/2000/svg">
<g clip-path="url(#clip0_3895_70369)">
<path d="M71.9393 45.6948H61.0791V48.562H71.9393V45.6948Z" fill="url(#paint0_linear_3895_70369)"/>
<path d="M61.4156 45.6948H7.08984V48.562H61.4156V45.6948Z" fill="#1D0C17"/>
<path d="M-0.0959473 48.5571H7.97997V45.6899H-0.0959473V48.5571Z" fill="url(#paint1_linear_3895_70369)"/>
<path d="M38.3576 33.1682H33.2713C31.4376 33.1682 29.947 36.1852 29.947 39.909C29.947 43.6328 31.4324 46.6497 33.2713 46.6497H38.3576C40.1913 46.6497 41.6819 43.6328 41.6819 39.909C41.6819 36.1852 40.1964 33.1682 38.3576 33.1682Z" fill="#1D0C17"/>
<path d="M34.9719 43.9197H2.84577C2.84577 43.9197 0.325672 37.4248 0.576658 33.7266C0.827643 30.0284 4.67438 30.8735 4.67438 30.8735L35.9297 30.6072L34.977 43.9197H34.9719Z" fill="#1D0C17"/>
<path d="M35.9657 33.168H33.2151C31.494 33.168 30.0957 36.1849 30.0957 39.9087C30.0957 43.6325 31.494 46.6495 33.2151 46.6495H35.9657C37.6867 46.6495 39.0851 43.6325 39.0851 39.9087C39.0851 36.1849 37.6867 33.168 35.9657 33.168Z" fill="#1D0C17"/>
<path d="M35.6225 33.1682H30.5362C28.7025 33.1682 27.2119 36.1852 27.2119 39.909C27.2119 43.6328 28.6973 46.6497 30.5362 46.6497H35.6225C37.4562 46.6497 38.9468 43.6328 38.9468 39.909C38.9468 36.1852 37.4613 33.1682 35.6225 33.1682Z" fill="#1D0C17"/>
<path d="M66.1454 33.1682H61.0591C59.2254 33.1682 57.7349 36.1852 57.7349 39.909C57.7349 43.6328 59.2203 46.6497 61.0591 46.6497H66.1454C67.9792 46.6497 69.4697 43.6328 69.4697 39.909C69.4697 36.1852 67.9843 33.1682 66.1454 33.1682Z" fill="#1D0C17"/>
<path d="M10.4164 33.168H7.66578C5.94473 33.168 4.54639 36.1849 4.54639 39.9087C4.54639 43.6325 5.94473 46.6495 7.66578 46.6495H10.4164C12.1374 46.6495 13.5358 43.6325 13.5358 39.9087C13.5358 36.1849 12.1374 33.168 10.4164 33.168Z" fill="#1D0C17"/>
<path d="M10.0732 33.1682H4.98687C3.15314 33.1682 1.6626 36.1852 1.6626 39.909C1.6626 43.6328 3.14802 46.6497 4.98687 46.6497H10.0732C11.9069 46.6497 13.3974 43.6328 13.3974 39.909C13.3974 36.1852 11.912 33.1682 10.0732 33.1682Z" fill="#1D0C17"/>
<path d="M70.9243 30.8274C70.576 29.6032 71.4275 29.7273 71.1406 29C70.8538 28.2727 69.065 26.6785 66.5705 25.3057C63.1797 23.4464 58.2265 20.245 58.2265 20.245L51.1172 13.2539C51.1172 13.2539 49.314 12.0854 41.1749 12.0854H10.022C8.85411 12.0854 7.73748 12.5413 6.90257 13.3557C5.8218 14.4007 4.35174 15.9168 3.44512 17.223C2.75363 18.2218 2.19019 19.0721 1.73944 19.7789C0.622814 21.5358 0.0849883 23.5949 0.187431 25.6745L0.320607 31.944L0.13621 32.9633C0.0132779 33.4038 -0.027699 33.87 0.0184003 34.3258L0.0747443 34.879C0.228409 36.4105 0.412806 37.8652 1.3143 39.1048C1.47309 36.4823 2.32337 33.3116 4.23393 32.738C6.16498 32.1643 7.76822 33.9878 8.46995 37.2301C8.90533 39.2431 8.85411 41.2663 8.52117 43.3716L26.6792 43.4023C26.6792 43.4023 26.4538 41.1588 26.4948 38.7155C26.5409 36.0878 27.678 33.1733 29.7013 32.738C31.8935 32.2667 33.3841 33.6753 34.1729 36.513C34.9976 39.4736 34.6032 42.4393 34.6032 42.4393H69.1777C69.1777 42.4393 69.9055 40.7251 70.7812 37.625C71.657 34.5249 71.7656 32.7031 71.6676 31.1175L70.9243 30.8274Z" fill="#E7E5E5"/>
<mask id="mask0_3895_70369" style="mask-type:alpha" maskUnits="userSpaceOnUse" x="0" y="12" width="72" height="32">
<path d="M70.9243 30.8274C70.576 29.6032 71.4275 29.7273 71.1406 29C70.8538 28.2727 69.065 26.6785 66.5705 25.3057C63.1797 23.4464 58.2265 20.245 58.2265 20.245L51.1211 13.2539C51.1211 13.2539 49.314 12.0854 41.1749 12.0854H10.022C8.85411 12.0854 7.73748 12.5413 6.90257 13.3557C5.8218 14.4007 4.35174 15.9168 3.44512 17.223C2.75363 18.2218 2.19019 19.0721 1.73944 19.7789C0.622814 21.5358 0.0849883 23.5949 0.187431 25.6745L0.320607 31.944L0.13621 32.9633C0.0132779 33.4038 -0.027699 33.87 0.0184003 34.3258L0.0747443 34.879C0.228409 36.4105 0.412806 37.8652 1.3143 39.1048C1.47309 36.4823 2.32337 33.3116 4.23393 32.738C6.16498 32.1643 7.76822 33.9878 8.46995 37.2301C8.90533 39.2431 8.85411 41.2663 8.52117 43.3716L26.6792 43.4023C26.6792 43.4023 26.4538 41.1588 26.4948 38.7155C26.5409 36.0878 27.678 33.1733 29.7013 32.738C31.8935 32.2667 33.3841 33.6753 34.1729 36.513C34.9976 39.4736 34.6032 42.4393 34.6032 42.4393H69.1777C69.1777 42.4393 69.9055 40.7251 70.7812 37.625C71.657 34.5249 71.7656 32.7031 71.6676 31.1175L70.9243 30.8274Z" fill="#E7E5E5"/>
</mask>
<g mask="url(#mask0_3895_70369)">
<path d="M73.6729 21.5063L19.578 -3.37305L6.24634 28.5209L60.3412 53.4003L73.6729 21.5063Z" fill="url(#paint2_linear_3895_70369)"/>
<path opacity="0.39" d="M73.2501 35.0217H33.5056V40.0094H73.2501V35.0217Z" fill="url(#paint3_linear_3895_70369)"/>
</g>
<path d="M3.45025 17.2178C2.75876 18.2167 2.19532 19.0669 1.74457 19.7738C0.627941 21.5307 0.0901152 23.5898 0.192558 25.6694L0.325734 31.9389L0.141337 32.9582C0.0184049 33.3987 -0.0225721 33.8648 0.0235273 34.3207L0.0798713 34.8739C0.233536 36.4003 0.407689 37.855 1.30919 39.0945C1.30919 39.0945 1.31943 39.1048 1.31943 39.0689C1.31943 39.0638 1.31943 39.0536 1.31943 39.0484C1.48334 36.431 2.33874 33.3014 4.23906 32.7328C6.13938 32.1643 7.77334 33.9826 8.47508 37.225C8.91046 39.238 8.85924 41.2612 8.5263 43.3664L26.6843 43.3972C26.6843 43.3972 26.459 41.1536 26.4999 38.7104C26.546 36.0827 27.6831 33.1682 29.7064 32.7328C31.8987 32.2616 33.3892 33.6702 34.178 36.5079C35.0027 39.4685 34.6083 42.4342 34.6083 42.4342H36.9696C37.4613 39.407 38.076 32.8763 37.8045 31.2679C37.5945 30.013 37.4101 28.9117 34.7671 26.658C33.6709 25.7257 31.8116 24.855 30.9921 23.9637C30.9921 23.9637 26.756 16.762 25.0043 14.7438C23.8467 13.407 23.2013 12.5157 18.7296 12.0752H10.0373C8.86948 12.0752 7.75285 12.5311 6.91794 13.3455C5.83717 14.3904 4.36711 15.9066 3.46049 17.2127L3.45025 17.2178Z" fill="#B9B2B4"/>
<mask id="mask1_3895_70369" style="mask-type:alpha" maskUnits="userSpaceOnUse" x="0" y="12" width="38" height="32">
<path d="M3.45025 17.2178C2.75876 18.2167 2.19532 19.0669 1.74457 19.7738C0.627941 21.5307 0.0901152 23.5898 0.192558 25.6694L0.325734 31.9389L0.141337 32.9582C0.0184049 33.3987 -0.0225721 33.8648 0.0235273 34.3207L0.0798713 34.8739C0.233536 36.4003 0.407689 37.855 1.30919 39.0945C1.30919 39.0945 1.31943 39.1048 1.31943 39.0689C1.31943 39.0638 1.31943 39.0536 1.31943 39.0484C1.48334 36.431 2.33874 33.3014 4.23906 32.7328C6.13938 32.1643 7.77334 33.9826 8.47508 37.225C8.91046 39.238 8.85924 41.2612 8.5263 43.3664L26.6843 43.3972C26.6843 43.3972 26.459 41.1536 26.4999 38.7104C26.546 36.0827 27.6831 33.1682 29.7064 32.7328C31.8987 32.2616 33.3892 33.6702 34.178 36.5079C35.0027 39.4685 34.6083 42.4342 34.6083 42.4342H36.9696C37.4613 39.407 38.076 32.8763 37.8045 31.2679C37.5945 30.013 37.4101 28.9117 34.7671 26.658C33.6709 25.7257 31.8116 24.855 30.9921 23.9637C30.9921 23.9637 26.756 16.762 25.0043 14.7438C23.8467 13.407 23.2013 12.5157 18.7296 12.0752H10.0373C8.86948 12.0752 7.75285 12.5311 6.91794 13.3455C5.83717 14.3904 4.36711 15.9066 3.46049 17.2127L3.45025 17.2178Z" fill="#B9B2B4"/>
</mask>
<g mask="url(#mask1_3895_70369)">
<path d="M37.7363 29.1042H-2.82007V42.9514H37.7363V29.1042Z" fill="url(#paint4_linear_3895_70369)"/>
<path d="M20.9886 53.2001L-4.29028 17.1848L18.8104 -0.0976562L45.6083 35.9176L20.9886 53.2001Z" fill="url(#paint5_linear_3895_70369)"/>
</g>
<path d="M61.4431 22.2938H32.3032C32.3032 22.2938 28.9277 16.9514 25.2192 13.2429H51.1168L61.4482 22.2938H61.4431Z" fill="#AC2A9E"/>
<path d="M26.0133 18.1038C23.6213 14.3135 22.5405 13.2429 19.0216 13.2429H10.0476C9.43291 13.2429 8.34701 13.5041 7.45576 14.3391C5.43763 16.2291 2.87655 20.0042 2.49239 21.925C2.21579 23.2977 2.72801 24.2658 4.12636 24.2658C10.0681 24.276 22.0846 24.2658 24.3845 24.2658C26.6843 24.2658 27.6626 24.6602 27.9546 24.025C28.2466 23.3899 28.2722 21.6791 26.0184 18.1038H26.0133Z" fill="#AC2A9E"/>
<mask id="mask2_3895_70369" style="mask-type:luminance" maskUnits="userSpaceOnUse" x="2" y="13" width="60" height="12">
<path d="M61.4432 22.2938H32.3033C32.3033 22.2938 28.9278 16.9514 25.2194 13.2429H51.1133L61.4484 22.2938H61.4432ZM26.0133 18.1038C23.6213 14.3135 22.5405 13.2429 19.0216 13.2429H10.0476C9.43291 13.2429 8.34701 13.5041 7.45576 14.3391C5.43763 16.2291 2.87655 20.0042 2.49239 21.925C2.21579 23.2977 2.72801 24.2658 4.12636 24.2658C10.0681 24.276 22.0846 24.2658 24.3845 24.2658C26.6843 24.2658 27.6626 24.6602 27.9546 24.025C28.2466 23.3899 28.2722 21.6791 26.0184 18.1038H26.0133Z" fill="white"/>
</mask>
<g mask="url(#mask2_3895_70369)">
<rect x="-0.5" y="25.625" width="12.125" height="66.25" transform="rotate(-90 -0.5 25.625)" fill="url(#paint6_linear_3895_70369)"/>
</g>
<path d="M0.218154 24.3069C0.202788 24.3786 0.101506 25.1562 0.109316 25.6016C0.117126 26.0469 0.296817 31.232 0.296817 31.232H2.27214C2.32848 26.074 1.29381 24.5374 0.218154 24.3069Z" fill="#746A6E"/>
<path d="M69.193 42.6288H34.429V39.7041H70.1508L69.193 42.6288Z" fill="#1D0C17"/>
<path d="M27.4373 43.8275H8.22925V42.6237C8.22925 42.6237 8.4034 36.3952 8.68512 38.5977C8.96684 40.8003 9.31626 42.173 10.1563 42.173H27.4424V43.8326L27.4373 43.8275Z" fill="#1D0C17"/>
<path d="M27.9904 23.9177L24.5078 23.9099C23.9495 23.9099 23.3552 22.6929 23.4098 19.4741C22.8828 19.4742 19.7181 19.4819 19.7181 19.4819C19.7181 19.4819 19.302 20.3459 19.2969 21.5547C19.2969 24.0287 20.0665 25.8641 20.0665 25.8641H25.4908C27.4628 25.8641 27.9904 23.9177 27.9904 23.9177Z" fill="#CFCBCC"/>
<path d="M37.8965 27.4973C41.2596 27.3697 43.7839 27.5573 46.7812 28.0754C47.5782 29.1398 47.9612 30.4399 48.1445 31.3801H43.3213C41.9998 31.3801 40.7136 30.8627 39.6738 29.9407C38.6341 29.0187 37.9014 27.4973 37.9014 27.4973H37.8965ZM47.5244 28.2336C49.9224 28.8261 51.3934 30.1316 51.6133 31.3801H48.6816C48.5219 30.51 48.1944 29.3148 47.5244 28.2336Z" fill="white"/>
<path d="M70.375 28.0234C70.7734 28.4062 70.9458 28.5294 71.1953 29.0654C71.4449 29.6016 71.6562 30.4922 71.6875 31.3857H68.2451C68.2311 30.6238 68.133 29.6678 67.8242 28.7178C68.4428 28.447 69.1576 28.2272 69.9609 28.0869C70.1146 28.0613 70.2265 28.049 70.375 28.0234ZM67.3408 28.9492C67.608 29.8107 67.6941 30.6838 67.708 31.3857H65.1621C65.3155 30.5143 66.0788 29.6152 67.3408 28.9492Z" fill="white"/>
<mask id="mask3_3895_70369" style="mask-type:luminance" maskUnits="userSpaceOnUse" x="27" y="34" width="6" height="12">
<path d="M27.8281 40.0859C27.8281 37.1879 28.8789 34.8438 30.1719 34.8438C31.4648 34.8438 32.5156 37.1928 32.5156 40.0859C32.5156 42.979 31.4648 45.3281 30.1719 45.3281C28.8789 45.3281 27.8281 42.979 27.8281 40.0859Z" fill="white"/>
</mask>
<g mask="url(#mask3_3895_70369)">
<path d="M32.5156 40.0859C32.5156 42.984 31.4648 45.3281 30.1719 45.3281C28.8789 45.3281 27.8281 42.979 27.8281 40.0859C27.8281 37.1928 28.8789 34.8438 30.1719 34.8438C31.4648 34.8438 32.5156 37.1928 32.5156 40.0859Z" fill="#746A6E"/>
<path opacity="0.7" d="M29.0232 48.6761L37.179 44.3162L31.4366 33.1127L23.2809 37.4727L29.0232 48.6761Z" fill="url(#paint7_linear_3895_70369)"/>
<path opacity="0.39" d="M31.4456 40.2342C31.4456 42.4201 30.7531 44.1906 29.896 44.1906C29.0389 44.1906 28.3464 42.4201 28.3464 40.2342C28.3464 38.0483 29.0389 36.2778 29.896 36.2778C30.7531 36.2778 31.4456 38.0483 31.4456 40.2342Z" fill="#746A6E"/>
</g>
<mask id="mask4_3895_70369" style="mask-type:luminance" maskUnits="userSpaceOnUse" x="2" y="34" width="5" height="12">
<path d="M2.28125 40.0859C2.28125 37.1879 3.31455 34.8438 4.58594 34.8438C5.85732 34.8438 6.89062 37.1928 6.89062 40.0859C6.89062 42.979 5.85732 45.3281 4.58594 45.3281C3.31455 45.3281 2.28125 42.979 2.28125 40.0859Z" fill="white"/>
</mask>
<g mask="url(#mask4_3895_70369)">
<path d="M6.89062 40.0859C6.89062 42.984 5.85732 45.3281 4.58594 45.3281C3.31455 45.3281 2.28125 42.979 2.28125 40.0859C2.28125 37.1928 3.31455 34.8438 4.58594 34.8438C5.85732 34.8438 6.89062 37.1928 6.89062 40.0859Z" fill="#746A6E"/>
<path opacity="0.7" d="M3.45652 48.6761L11.4763 44.3162L5.82967 33.1127L-2.19013 37.4727L3.45652 48.6761Z" fill="url(#paint8_linear_3895_70369)"/>
<path opacity="0.39" d="M5.83829 40.2342C5.83829 42.4201 5.15736 44.1906 4.31453 44.1906C3.4717 44.1906 2.79077 42.4201 2.79077 40.2342C2.79077 38.0483 3.4717 36.2778 4.31453 36.2778C5.15736 36.2778 5.83829 38.0483 5.83829 40.2342Z" fill="#746A6E"/>
</g>
<path d="M68.4857 3.72061C69.5306 3.76671 70.386 2.97789 70.4218 1.93297C70.4628 0.893177 69.674 0.0377765 68.6291 0.00192138C67.5842 -0.044178 66.7288 0.744634 66.6929 1.78955C66.6929 2.83447 67.4817 3.68475 68.4805 3.72061H68.4857Z" fill="#820076"/>
<path d="M71.9636 13.4578C71.8099 12.0492 70.9084 11.1375 70.2426 10.5945C69.9301 10.3282 69.0747 9.58548 66.7185 8.60714C66.8978 8.28445 67.1385 8.00785 67.3434 7.76199C67.4663 7.61857 67.579 7.49564 67.6559 7.37271L67.7225 7.28563C68.0247 6.86561 68.332 6.44047 68.3217 5.81045C68.3115 5.16506 67.9786 4.65796 67.2205 4.14575L66.9183 3.98184C66.0834 3.49523 64.685 2.69618 63.092 3.22888C61.9908 3.60792 60.9919 4.69382 60.1007 5.65678L59.9112 5.86679L61.2993 7.09611L61.4888 6.8861C62.1649 6.10753 63.1689 5.20091 63.7682 5.01139C64.1216 4.87821 64.4033 4.9448 64.8694 5.32384C64.2445 6.13314 63.4352 7.49564 63.1228 8.57129H63.0869C60.2083 8.57129 57.8623 10.9121 57.8623 13.7856C57.8623 16.6592 60.2083 19 63.0869 19C65.9656 19 68.3115 16.6592 68.3115 13.7856C68.3115 13.089 68.1681 12.4232 67.912 11.7982C69.3564 12.7202 69.8379 13.4066 69.8686 13.7191C69.9557 14.3849 69.3564 15.7372 69.003 16.5465L68.8237 16.9563L70.7906 17.7553L70.9597 17.3455C71.4924 16.0701 72.107 14.6154 71.9841 13.4425L71.9636 13.4527V13.4578ZM63.0818 10.5741C64.8387 10.5741 66.2729 12.0031 66.2729 13.7549C66.2729 15.5067 64.8387 16.9358 63.0818 16.9358C61.3249 16.9358 59.8907 15.5067 59.8907 13.7549C59.8907 12.0031 61.3249 10.5741 63.0818 10.5741Z" fill="#820076"/>
</g>
<defs>
<linearGradient id="paint0_linear_3895_70369" x1="61.084" y1="47.1259" x2="71.9393" y2="47.1259" gradientUnits="userSpaceOnUse">
<stop offset="0.45" stop-color="#1D0C17"/>
<stop offset="1" stop-color="#1D0C17" stop-opacity="0"/>
</linearGradient>
<linearGradient id="paint1_linear_3895_70369" x1="7.97997" y1="47.126" x2="-0.0959473" y2="47.126" gradientUnits="userSpaceOnUse">
<stop offset="0.45" stop-color="#1D0C17"/>
<stop offset="1" stop-color="#1D0C17" stop-opacity="0"/>
</linearGradient>
<linearGradient id="paint2_linear_3895_70369" x1="12.3613" y1="12.3238" x2="67.5579" y2="37.7085" gradientUnits="userSpaceOnUse">
<stop stop-color="#CFCBCC"/>
<stop offset="0.94" stop-color="#CFCBCC" stop-opacity="0"/>
</linearGradient>
<linearGradient id="paint3_linear_3895_70369" x1="53.3754" y1="36.6221" x2="53.3754" y2="40.2317" gradientUnits="userSpaceOnUse">
<stop stop-color="#746A6E" stop-opacity="0.9"/>
<stop offset="1" stop-color="#746A6E" stop-opacity="0"/>
</linearGradient>
<linearGradient id="paint4_linear_3895_70369" x1="17.4581" y1="33.5465" x2="17.4581" y2="43.5629" gradientUnits="userSpaceOnUse">
<stop stop-color="#746A6E" stop-opacity="0.6"/>
<stop offset="0.9" stop-color="#746A6E" stop-opacity="0"/>
</linearGradient>
<linearGradient id="paint5_linear_3895_70369" x1="32.539" y1="15.9169" x2="7.97453" y2="28.1368" gradientUnits="userSpaceOnUse">
<stop offset="0.11" stop-color="#746A6E" stop-opacity="0.79"/>
<stop offset="0.93" stop-color="#746A6E" stop-opacity="0"/>
</linearGradient>
<linearGradient id="paint6_linear_3895_70369" x1="-0.5" y1="58.75" x2="11.625" y2="58.75" gradientUnits="userSpaceOnUse">
<stop offset="0.115385" stop-color="#42003B"/>
<stop offset="0.913462" stop-color="#42003B" stop-opacity="0"/>
</linearGradient>
<linearGradient id="paint7_linear_3895_70369" x1="26.9701" y1="41.9213" x2="35.2057" y2="37.7002" gradientUnits="userSpaceOnUse">
<stop offset="0.09" stop-color="#CFCBCC"/>
<stop offset="0.22" stop-color="#CFCBCC" stop-opacity="0.88"/>
<stop offset="0.79" stop-color="#CFCBCC" stop-opacity="0"/>
</linearGradient>
<linearGradient id="paint8_linear_3895_70369" x1="1.43764" y1="41.9213" x2="9.59206" y2="37.8114" gradientUnits="userSpaceOnUse">
<stop offset="0.09" stop-color="#CFCBCC"/>
<stop offset="0.22" stop-color="#CFCBCC" stop-opacity="0.88"/>
<stop offset="0.79" stop-color="#CFCBCC" stop-opacity="0"/>
</linearGradient>
<clipPath id="clip0_3895_70369">
<rect width="72" height="51" fill="white"/>
</clipPath>
</defs>
</svg>
