<svg width="73" height="51" viewBox="0 0 73 51" fill="none" xmlns="http://www.w3.org/2000/svg">
<path d="M71.9999 45.6948H61.145V48.562H71.9999V45.6948Z" fill="url(#paint0_linear_3895_70374)"/>
<path d="M61.4814 45.6948H7.18237V48.562H61.4814V45.6948Z" fill="#1D0C17"/>
<path d="M0 48.5571H8.07195V45.6899H0V48.5571Z" fill="url(#paint1_linear_3895_70374)"/>
<path d="M28.6287 43.7168H8.94165V40.13H27.4888L28.6287 43.7168Z" fill="#1D0C17"/>
<path d="M68.5452 43.7168H35.6709V40.13H67.4053L68.5452 43.7168Z" fill="#1D0C17"/>
<path d="M31.4457 32.2017H26.0908C24.1606 32.2017 22.5901 35.292 22.5901 39.1018C22.5901 42.9115 24.1555 46.0019 26.0908 46.0019H31.4457C33.3759 46.0019 34.9464 42.9115 34.9464 39.1018C34.9464 35.292 33.381 32.2017 31.4457 32.2017Z" fill="#1D0C17"/>
<path d="M49.2175 21.5658H55.839C55.839 21.5658 57.3234 23.2174 57.4146 23.5771C57.5058 23.9368 57.369 25.2337 57.369 25.2337L53.5997 24.7423L49.3999 22.0977L49.2175 21.5658Z" fill="#A1989B"/>
<path d="M36.0509 32.2017H30.696C28.7658 32.2017 27.1953 35.292 27.1953 39.1018C27.1953 42.9115 28.7608 46.0019 30.696 46.0019H36.0509C37.9811 46.0019 39.5517 42.9115 39.5517 39.1018C39.5517 35.292 37.9862 32.2017 36.0509 32.2017Z" fill="#1D0C17"/>
<path d="M9.07363 32.2017H4.048C2.23432 32.2017 0.765137 35.292 0.765137 39.1018C0.765137 42.9115 2.23432 46.0019 4.048 46.0019H9.07363C10.8873 46.0019 12.3565 42.9115 12.3565 39.1018C12.3565 35.292 10.8873 32.2017 9.07363 32.2017Z" fill="#1D0C17"/>
<path d="M67.2836 32.2471H61.9287C59.9985 32.2471 58.428 35.3374 58.428 39.1472C58.428 42.9569 59.9934 46.0473 61.9287 46.0473H67.2836C69.2138 46.0473 70.7843 42.9569 70.7843 39.1472C70.7843 35.3374 69.2189 32.2471 67.2836 32.2471Z" fill="#1D0C17"/>
<path d="M0.764302 39.1113C0.755491 38.8566 0.350342 29.0591 0.350342 29.0591L10.2083 30.3071L9.53449 37.9823C9.53449 37.9823 7.63469 37.4757 7.50804 37.4757C7.38138 37.4757 5.18774 33.975 5.18774 33.975L3.71349 33.3012L2.40642 34.1422L0.861935 39.084L0.764302 39.1113Z" fill="#1D0C17"/>
<path d="M35.0376 32.8805L33.7002 30.1397L29.556 29.3798L25.2549 30.6868V41.4828L27.4485 41.0218L27.6157 38.4076L28.0818 35.5402L29.4294 33.5593L35.0376 32.8855V32.8805Z" fill="#1D0C17"/>
<path d="M36.9474 42.3288H70.3942C71.1119 39.9025 72.5202 34.1828 71.6375 32.2434C71.6172 31.985 70.7437 31.8014 70.2371 31.2491C69.8521 30.8337 70.0294 30.0535 69.3556 29.6837C68.6818 29.3088 67.4314 28.802 66.0686 28.1687C62.1019 26.3347 52.1814 23.3261 52.1814 23.3261L47.1507 18.1329C47.1507 18.1329 47.4901 17.7377 46.6694 17.0994C45.8487 16.4611 40.0438 15.23 32.3582 15.23C24.6726 15.23 20.9117 15.23 18.9474 15.23C16.9832 15.23 14.3372 15.5998 10.9986 17.91C7.65495 20.2252 5.55757 22.8647 3.47031 23.9539C1.46918 25.0026 0 25.0077 0 25.0077L0.694063 32.1104C0.694063 32.1104 1.10442 31.6038 2.05686 29.1771C3.01436 26.7555 31.5621 29.5571 32.8438 30.6209C33.0668 30.8084 33.2643 31.0262 33.4113 31.2694C34.4042 32.8855 35.762 34.684 36.2027 37.6578C36.6435 40.6317 36.9525 42.3187 36.9525 42.3187L36.9474 42.3288Z" fill="#E7E5E5"/>
<mask id="mask0_3895_70374" style="mask-type:alpha" maskUnits="userSpaceOnUse" x="0" y="15" width="72" height="28">
<path d="M36.9474 42.3288H70.3942C71.1119 39.9025 72.5202 34.1828 71.6375 32.2434C71.6172 31.985 70.7437 31.8014 70.2371 31.2491C69.8521 30.8337 70.0294 30.0535 69.3556 29.6837C68.6818 29.3088 67.4314 28.802 66.0686 28.1687C62.1019 26.3347 52.1814 23.3261 52.1814 23.3261L47.1507 18.1329C47.1507 18.1329 47.4901 17.7377 46.6694 17.0994C45.8487 16.4611 40.0438 15.23 32.3582 15.23C24.6726 15.23 20.9117 15.23 18.9474 15.23C16.9832 15.23 14.3372 15.5998 10.9986 17.91C7.65495 20.2252 5.55757 22.8647 3.47031 23.9539C1.46918 25.0026 0 25.0077 0 25.0077L0.694063 32.1104C0.694063 32.1104 1.10442 31.6038 2.05686 29.1771C3.01436 26.7555 31.5621 29.5571 32.8438 30.6209C33.0668 30.8084 33.2643 31.0262 33.4113 31.2694C34.4042 32.8855 35.762 34.684 36.2027 37.6578C36.6435 40.6317 36.9525 42.3187 36.9525 42.3187L36.9474 42.3288Z" fill="#E7E5E5"/>
</mask>
<g mask="url(#mask0_3895_70374)">
<path d="M73.6773 24.7289L19.4492 -0.211792L6.08472 31.7607L60.3128 56.7013L73.6773 24.7289Z" fill="url(#paint2_linear_3895_70374)"/>
<path opacity="0.39" d="M74.8627 38.4584H33.4976V41.3005H74.8627V38.4584Z" fill="url(#paint3_linear_3895_70374)"/>
</g>
<path d="M38.0756 32.4333C36.5255 29.4051 31.8359 26.6999 30.3414 25.8944C29.1205 25.2409 28.6037 24.5164 28.011 23.569C27.2105 22.2974 24.5964 18.4927 22.8841 17.0489C21.1717 15.605 19.2871 15.1187 15.4571 15.7165C14.1551 16.1015 12.6454 16.7652 10.9989 17.9051C7.6552 20.2203 5.55781 22.8598 3.47056 23.949C1.46943 24.9977 0.000244141 25.0078 0.000244141 25.0078L0.527124 33.1694C1.48463 30.8845 2.97914 30.4337 4.35207 30.8694C5.97324 31.381 7.74132 33.4278 8.83055 38.0987C9.43848 40.7129 9.34729 41.5184 10.0464 41.5184H26.8053C25.9592 38.656 26.1112 34.9983 27.018 33.1339C27.8995 31.3152 29.7132 29.9473 32.15 31.4874C34.5818 33.0225 35.8483 37.278 35.9598 42.329H38.4827C38.9662 37.7333 38.8913 34.0267 38.0756 32.4333Z" fill="#B9B2B4"/>
<mask id="mask1_3895_70374" style="mask-type:alpha" maskUnits="userSpaceOnUse" x="0" y="15" width="39" height="28">
<path d="M38.0756 32.4333C36.5255 29.4051 31.8359 26.6999 30.3414 25.8944C29.1205 25.2409 28.6037 24.5164 28.011 23.569C27.2105 22.2974 24.5964 18.4927 22.8841 17.0489C21.1717 15.605 19.2871 15.1187 15.4571 15.7165C14.1551 16.1015 12.6454 16.7652 10.9989 17.9051C7.6552 20.2203 5.55781 22.8598 3.47056 23.949C1.46943 24.9977 0.000244141 25.0078 0.000244141 25.0078L0.527124 33.1694C1.48463 30.8845 2.97914 30.4337 4.35207 30.8694C5.97324 31.381 7.74132 33.4278 8.83055 38.0987C9.43848 40.7129 9.34729 41.5184 10.0464 41.5184H26.8053C25.9592 38.656 26.1112 34.9983 27.018 33.1339C27.8995 31.3152 29.7132 29.9473 32.15 31.4874C34.5818 33.0225 35.8483 37.278 35.9598 42.329H38.4827C38.9662 37.7333 38.8913 34.0267 38.0756 32.4333Z" fill="#B9B2B4"/>
</mask>
<g mask="url(#mask1_3895_70374)">
<path d="M40.9905 26.72H-1.80835V40.6012H40.9905V26.72Z" fill="url(#paint4_linear_3895_70374)"/>
<path d="M26.2682 51.5343L3.92651 19.7036L24.3431 4.4292L48.0274 36.2598L26.2682 51.5343Z" fill="url(#paint5_linear_3895_70374)"/>
</g>
<path d="M69.1884 29.7043C67.4152 30.0032 67.3291 32.6325 67.3291 32.6325L71.7265 32.6072C71.7265 32.6072 71.6455 31.0266 69.3809 29.6942C69.3606 29.679 69.2137 29.6992 69.1884 29.7043Z" fill="white"/>
<path d="M24.0593 16.5268C24.0593 16.5268 28.5586 16.2785 34.2327 16.4001C40.8248 16.4685 46.6695 17.0942 46.6695 17.0942L56.0115 24.5263H30.6149C30.6149 24.5263 28.1021 21.1471 27.2307 20.0174C26.2833 18.7812 24.3886 16.8308 24.0542 16.5268H24.0593Z" fill="#AC2A9E"/>
<path d="M7.01172 22.8138L9.07871 24.8808H22.7725C22.7725 24.8808 27.4232 24.4856 27.4587 24.5464C27.2561 23.5129 25.3157 20.3922 23.041 18.2543C20.7663 16.1164 16.607 16.1822 14.0081 17.3525C10.7404 18.8166 7.57913 22.6517 7.01172 22.8138Z" fill="#AC2A9E"/>
<path d="M1.88448 25.8182C1.29681 25.8588 0.511557 25.8942 0.0505371 25.8334L0.323114 30.0355C0.323114 30.0355 1.11949 30.0434 1.39813 29.5419C1.67171 29.0504 1.92501 27.6015 1.88448 25.8182Z" fill="#746A6E"/>
<mask id="mask2_3895_70374" style="mask-type:luminance" maskUnits="userSpaceOnUse" x="1" y="33" width="5" height="12">
<path d="M1.38818 39.2789C1.38818 36.3102 2.42168 33.9088 3.69328 33.9088C4.96489 33.9088 5.99838 36.3152 5.99838 39.2789C5.99838 42.2426 4.96489 44.6491 3.69328 44.6491C2.42168 44.6491 1.38818 42.2426 1.38818 39.2789Z" fill="white"/>
</mask>
<g mask="url(#mask2_3895_70374)">
<path d="M5.98825 39.2789C5.98825 42.2477 4.95982 44.6491 3.68822 44.6491C2.41661 44.6491 1.38818 42.2426 1.38818 39.2789C1.38818 36.3152 2.41661 33.9088 3.68822 33.9088C4.95982 33.9088 5.98825 36.3152 5.98825 39.2789Z" fill="#746A6E"/>
<path opacity="0.7" d="M-3.10034 36.6042L4.92951 32.1359L10.5884 43.6158L2.55855 48.0841L-3.10034 36.6042Z" fill="url(#paint6_linear_3895_70374)"/>
<path opacity="0.39" d="M4.88905 39.3602C4.88905 41.3765 4.22539 43.0078 3.40974 43.0078C2.59409 43.0078 1.93042 41.3765 1.93042 39.3602C1.93042 37.3438 2.59409 35.7125 3.40974 35.7125C4.22539 35.7125 4.88905 37.3489 4.88905 39.3602Z" fill="#746A6E"/>
</g>
<mask id="mask3_3895_70374" style="mask-type:luminance" maskUnits="userSpaceOnUse" x="27" y="33" width="6" height="12">
<path d="M27.8589 39.2789C27.8589 36.3102 28.9582 33.9088 30.3109 33.9088C31.6636 33.9088 32.7629 36.3152 32.7629 39.2789C32.7629 42.2426 31.6636 44.6491 30.3109 44.6491C28.9582 44.6491 27.8589 42.2426 27.8589 39.2789Z" fill="white"/>
</mask>
<g mask="url(#mask3_3895_70374)">
<path d="M32.7629 39.2789C32.7629 42.2477 31.6636 44.6491 30.3109 44.6491C28.9582 44.6491 27.8589 42.2426 27.8589 39.2789C27.8589 36.3152 28.9582 33.9088 30.3109 33.9088C31.6636 33.9088 32.7629 36.3152 32.7629 39.2789Z" fill="#746A6E"/>
<path opacity="0.7" d="M29.1091 48.0785L37.6416 43.6122L31.634 32.1353L23.1015 36.6017L29.1091 48.0785Z" fill="url(#paint7_linear_3895_70374)"/>
<path opacity="0.39" d="M31.6435 39.4309C31.6435 41.6701 30.919 43.4838 30.0223 43.4838C29.1256 43.4838 28.4011 41.6701 28.4011 39.4309C28.4011 37.1916 29.1256 35.3779 30.0223 35.3779C30.919 35.3779 31.6435 37.1916 31.6435 39.4309Z" fill="#746A6E"/>
</g>
<path d="M68.7478 29.3848C67.7498 29.5874 66.539 29.937 65.8399 30.8793C65.4447 31.4163 65.2927 32.7284 65.2927 32.7284C65.2927 32.7284 69.3912 32.8551 71.7875 32.7284C71.6457 32.237 71.0124 30.2815 68.7478 29.3848Z" fill="white"/>
<path d="M41.8333 28.588C43.3233 28.6138 44.8978 28.7768 46.6799 29.1573C49.623 29.7856 50.9301 31.1332 51.0061 32.7189C47.8137 32.9118 44.8812 32.8735 42.9075 32.7169C42.8814 31.8773 42.7158 30.1108 41.8333 28.588ZM41.2327 28.5851C42.1685 30.0146 42.3614 31.8101 42.3977 32.672C42.0443 32.6371 41.7301 32.5994 41.4612 32.5568C40.8736 32.4655 40.2203 31.8572 39.6428 31.2443C38.6146 30.1455 37.7967 28.8261 37.7883 28.8126L37.7932 28.8077C38.9386 28.6805 40.0645 28.593 41.2327 28.5851Z" fill="white"/>
<mask id="mask4_3895_70374" style="mask-type:luminance" maskUnits="userSpaceOnUse" x="7" y="16" width="50" height="9">
<path d="M24.0593 16.5268C24.0593 16.5268 31.8055 16.2785 37.4795 16.4001C43.1536 16.5268 46.6695 17.0942 46.6695 17.0942L56.0115 24.5262H30.6149C30.6149 24.5262 28.1021 21.1471 27.2307 20.0173C26.2834 18.7812 24.3886 16.8307 24.0542 16.5268H24.0593ZM7.01172 22.8138L9.07871 24.8808H22.7725C22.7725 24.8808 27.4232 24.4857 27.4587 24.5465C27.2561 23.513 25.3157 20.3922 23.041 18.2543C20.7663 16.1164 16.607 16.1823 14.0081 17.3525C10.7404 18.8167 7.57913 22.6517 7.01172 22.8138Z" fill="white"/>
</mask>
<g mask="url(#mask4_3895_70374)">
<rect x="-1.7583" y="26.4972" width="10.8723" height="58.798" transform="rotate(-90 -1.7583 26.4972)" fill="url(#paint8_linear_3895_70374)"/>
</g>
<path d="M27.4606 24.5396H24.6438C24.1068 24.5396 22.8605 21.5658 22.8605 21.5658H19.9019C19.9019 21.5658 18.6455 22.5081 18.6455 23.4504C18.6455 24.3927 19.8107 25.6035 19.8107 25.6035H25.6571C27.5619 25.6035 27.4606 24.5396 27.4606 24.5396Z" fill="#CFCBCC"/>
<defs>
<linearGradient id="paint0_linear_3895_70374" x1="61.15" y1="47.1259" x2="71.9999" y2="47.1259" gradientUnits="userSpaceOnUse">
<stop offset="0.45" stop-color="#1D0C17"/>
<stop offset="1" stop-color="#1D0C17" stop-opacity="0"/>
</linearGradient>
<linearGradient id="paint1_linear_3895_70374" x1="8.07195" y1="47.126" x2="0" y2="47.126" gradientUnits="userSpaceOnUse">
<stop offset="0.45" stop-color="#1D0C17"/>
<stop offset="1" stop-color="#1D0C17" stop-opacity="0"/>
</linearGradient>
<linearGradient id="paint2_linear_3895_70374" x1="12.2148" y1="15.5237" x2="67.5472" y2="40.9709" gradientUnits="userSpaceOnUse">
<stop stop-color="#CFCBCC"/>
<stop offset="0.94" stop-color="#CFCBCC" stop-opacity="0"/>
</linearGradient>
<linearGradient id="paint3_linear_3895_70374" x1="54.1776" y1="39.3703" x2="54.1776" y2="41.4271" gradientUnits="userSpaceOnUse">
<stop stop-color="#746A6E" stop-opacity="0.9"/>
<stop offset="1" stop-color="#746A6E" stop-opacity="0"/>
</linearGradient>
<linearGradient id="paint4_linear_3895_70374" x1="19.5911" y1="31.1731" x2="19.5911" y2="41.2142" gradientUnits="userSpaceOnUse">
<stop stop-color="#746A6E" stop-opacity="0.6"/>
<stop offset="0.9" stop-color="#746A6E" stop-opacity="0"/>
</linearGradient>
<linearGradient id="paint5_linear_3895_70374" x1="31.2209" y1="19.125" x2="13.4709" y2="30.125" gradientUnits="userSpaceOnUse">
<stop offset="0.11" stop-color="#746A6E" stop-opacity="0.79"/>
<stop offset="0.93" stop-color="#746A6E" stop-opacity="0"/>
</linearGradient>
<linearGradient id="paint6_linear_3895_70374" x1="0.804123" y1="41.1193" x2="9.22259" y2="36.7127" gradientUnits="userSpaceOnUse">
<stop offset="0.09" stop-color="#CFCBCC"/>
<stop offset="0.79" stop-color="#CFCBCC" stop-opacity="0"/>
</linearGradient>
<linearGradient id="paint7_linear_3895_70374" x1="26.9612" y1="41.1589" x2="35.5008" y2="36.6888" gradientUnits="userSpaceOnUse">
<stop offset="0.09" stop-color="#CFCBCC"/>
<stop offset="0.22" stop-color="#CFCBCC" stop-opacity="0.88"/>
<stop offset="0.79" stop-color="#CFCBCC" stop-opacity="0"/>
</linearGradient>
<linearGradient id="paint8_linear_3895_70374" x1="-1.7583" y1="55.8962" x2="9.11402" y2="55.8962" gradientUnits="userSpaceOnUse">
<stop offset="0.115385" stop-color="#42003B"/>
<stop offset="0.913462" stop-color="#42003B" stop-opacity="0"/>
</linearGradient>
</defs>
</svg>
