<svg width="45" height="45" viewBox="0 0 45 45" fill="none" xmlns="http://www.w3.org/2000/svg">
<rect width="45" height="45" rx="22.5" fill="#FF00BF"/>
<path d="M17.5488 18.6034V24.2684C17.5488 24.6596 17.8651 24.9764 18.2559 24.9764C18.6466 24.9764 18.9629 24.6597 18.9629 24.2684V18.6034H23.207V28.1639C23.207 29.9446 22.5897 31.4209 21.4209 32.4325C20.3798 33.3335 18.9329 33.8299 17.3477 33.8299C16.3452 33.8299 15.3107 33.627 14.3662 33.244V29.4696C14.5028 29.5475 14.6119 29.5999 14.6191 29.6034C15.2458 29.9054 15.9357 30.0653 16.6133 30.0653C17.2714 30.0649 17.8572 29.9165 18.3066 29.6346C18.786 29.334 19.0735 28.8984 19.1396 28.3758C18.5004 28.9235 17.6844 29.2263 16.8418 29.2264C14.8919 29.2264 13.3049 27.6377 13.3047 25.6854V18.6034H17.5488ZM12.2441 25.6844C12.2441 26.8324 12.613 27.8388 13.292 28.6122C13.3356 28.6618 13.4418 28.7736 13.4434 28.7752C13.4434 28.7752 13.3295 28.8468 13.2588 28.8797C12.7801 29.1034 12.2457 29.2254 11.7129 29.2254C9.9246 29.2252 8 27.8954 8 24.9764V14.3534H12.2441V25.6844ZM27.8232 14.3885C31.3463 13.0702 34.8517 15.2635 35.4844 18.6034H36.999V22.8524H35.585V23.5604C35.585 24.3348 36.2058 24.9743 36.999 24.9764V29.2235H36.8174C35.3497 29.1796 33.9855 28.598 32.9766 27.5877C31.9217 26.5315 31.3408 25.1017 31.3408 23.5604V19.6649C31.3406 18.6336 30.2341 17.8568 29.1475 18.4608C28.7511 18.6813 28.5118 19.1056 28.5117 19.5594V20.7274H30.2793V24.9764H28.5117C28.5117 26.0773 28.091 27.1228 27.3271 27.9188C26.5662 28.7122 25.5448 29.1744 24.4521 29.2215H24.2676V19.5682C24.2676 17.4709 25.8612 15.123 27.8232 14.3885Z" fill="white"/>
</svg>
